<?xml version="1.0" encoding="utf-8"?>
<!-- Generator: Adobe Illustrator 17.1.0, SVG Export Plug-In . SVG Version: 6.00 Build 0)  -->
<!DOCTYPE svg PUBLIC "-//W3C//DTD SVG 1.1//EN" "http://www.w3.org/Graphics/SVG/1.1/DTD/svg11.dtd">
<svg version="1.1" id="Layer_1" xmlns="http://www.w3.org/2000/svg" xmlns:xlink="http://www.w3.org/1999/xlink" x="0px" y="0px"
	 viewBox="0 0 364 98" enable-background="new 0 0 364 98" xml:space="preserve">
<path d="M308.8,2.3c1.2,1.3,2.4,2.6,3.6,3.9C319,13,325.6,20,332.2,26.9c5.8,6,11.5,12.1,17.3,18.1c0.9,1,1.8,1.9,2.9,3
	c0-7.3,0-14.4,0-21.5c0-7.1,0-14.2,0-21.4c2.4,0,4.8,0,7.2,0c0,20.1,0,40.3,0,60.5c-14.6-15.2-29-30.4-43.6-45.7
	c0,14.5,0,28.9,0,43.3c-2.5,0-4.9,0-7.3,0c0-20.4,0-40.7,0-61C308.7,2.3,308.8,2.3,308.8,2.3z"/>
<path d="M131.6,33.5c-2.9-1.4-5.8-2.3-8.7-2.9c-12.7-2.6-24.1,0-33.8,8.7c-7.9,7.2-11.6,16.3-11.3,27c0,1,0.2,2,0.3,3.1
	c-2.8-1.5-5.3-3.2-7.6-5.3c-5.7-5.3-9.4-11.7-10.7-19.3c-1.9-11.2,1.1-21,8.8-29.3C74.4,9,81.8,5.3,90.3,4.1
	c14.9-2.1,29.6,4.7,37.1,17.6c2,3.4,3.3,7.1,4,11C131.5,33,131.5,33.2,131.6,33.5z"/>
<path d="M271.8,64.6c-17.2,0-30.8-13.7-30.5-30.8c0.2-15.6,13.3-30.1,30.8-30c17.1,0.1,30.7,14.3,30.4,31
	C302,51.2,288.9,64.6,271.8,64.6z M295,34.2c0-0.4,0-0.7,0-1.1c-0.2-5.6-2.1-10.6-5.8-14.8c-4.2-4.7-9.5-7.2-15.8-7.6
	c-7-0.4-13.1,1.7-18,6.6c-7.3,7.3-8.9,19-3.9,28.2c5,9.2,15.4,14,25.3,11.7C287.5,54.8,295,45.3,295,34.2z"/>
<path d="M10.9,63.3c-2.5,0-4.9,0-7.3,0c0-19.4,0-38.7,0-58.1c2.4,0,4.8,0,7.3,0c0,7.8,0,15.6,0,23.4c9.2,0,18.4,0,27.6,0
	c0-7.8,0-15.6,0-23.4c2.5,0,4.9,0,7.3,0c0,19.4,0,38.7,0,58.1c-2.4,0-4.8,0-7.2,0c0-9.3,0-18.6,0-27.9c-9.3,0-18.4,0-27.7,0
	C10.9,44.7,10.9,53.9,10.9,63.3z"/>
<path d="M160.9,38c6.1,8.4,12.2,16.8,18.3,25.3c-0.4,0-0.7,0-0.9,0c-2.4,0-4.8,0-7.2,0c-0.6,0-0.9-0.2-1.2-0.6
	c-5.4-7.8-10.9-15.6-16.3-23.4c-0.3-0.4-0.6-0.6-1.1-0.6c-0.7,0-1.4,0-2.2,0c0,8.2,0,16.4,0,24.6c-2.5,0-4.9,0-7.3,0
	c0-19.4,0-38.7,0-58.1c0.2,0,0.3-0.1,0.5-0.1c4.9,0.1,9.7,0.1,14.6,0.2c3.4,0.1,6.7,0.8,9.6,2.8c5.1,3.5,7.4,8.5,7.2,14.6
	c-0.1,3.9-1.5,7.4-4.2,10.4c-2.4,2.7-5.3,4.2-8.8,4.8c-0.2,0-0.4,0.1-0.6,0.1C161.1,37.9,161,38,160.9,38z M150.2,32.6
	c1.1,0,2.1,0,3.1,0c3.4-0.1,6.7-0.5,9.8-1.9c2.2-1,3.6-2.6,4.2-4.9c0.5-1.8,0.6-3.6,0.4-5.4c-0.4-3.3-1.9-5.7-5-6.9
	c-3.3-1.4-6.8-1.8-10.3-1.8c-0.8,0-1.5,0-2.3,0C150.2,18.6,150.2,25.6,150.2,32.6z"/>
<path d="M227.4,11.7c-8.5,0-16.9,0-25.3,0c0-2.2,0-4.4,0-6.6c12.3,0,24.7,0,37.1,0c-9.8,17.1-19.6,34.2-29.4,51.5
	c9.9,0,19.6,0,29.4,0c0,2.3,0,4.5,0,6.7c-13.8,0-27.5,0-41.3,0C207.7,46.1,217.5,29,227.4,11.7z"/>
<path d="M191.9,63.3c-2.4,0-4.8,0-7.2,0c0-19.4,0-38.7,0-58.2c2.4,0,4.8,0,7.2,0C191.9,24.5,191.9,43.9,191.9,63.3z"/>
<path d="M243.5,78.6c2-0.1,2-0.1,2.6,1.5c1.1,2.8,2.2,5.5,3.2,8.3c0,0.1,0.1,0.2,0.2,0.5c1.4-3.6,2.7-7,4.1-10.7
	c1.4,3.6,2.7,7.1,4.1,10.7c0.1-0.3,0.2-0.5,0.3-0.7c1.1-2.9,2.3-5.8,3.3-8.6c0.3-0.7,0.6-1.1,1.4-0.9c0.3,0.1,0.6,0,1,0
	c-2,5.1-4,10.1-6.1,15.2c-1.4-3.6-2.7-7-4.1-10.7c-1.4,3.6-2.7,7-4.1,10.6C247.5,88.6,245.5,83.6,243.5,78.6z"/>
<path d="M42.7,77.8c3.7,3.8,7.2,7.5,10.8,11.4c0-3.6,0-7.1,0-10.6c0.7,0,1.2,0,1.9,0c0,5,0,10,0,15.1c-3.7-3.8-7.2-7.5-10.9-11.4
	c0,3.7,0,7.2,0,10.7c-0.6,0-1.2,0-1.8,0C42.7,88,42.7,83,42.7,77.8z"/>
<path d="M308,78.4c1.9,0.1,3.8,0.1,5.6,0.4c3.5,0.7,5.5,3.2,5.6,6.6c0.1,3.8-1.8,6.3-5.4,7.3c-1.9,0.5-3.8,0.3-5.8,0.3
	C308,88.2,308,83.4,308,78.4z M309.8,91.5c1-0.1,2-0.1,3-0.3c3.9-0.8,5.7-4.7,3.9-8.2c-1-1.9-3.7-3-6.8-2.7
	C309.8,84,309.8,87.6,309.8,91.5z"/>
<path d="M97.8,87.1c0,2,0,4,0,6c-0.7,0-1.2,0-1.8,0c0-4.8,0-9.6,0-14.5c1.8,0.1,3.6-0.3,5.4,0.4c1.7,0.6,2.6,2.2,2.6,4
	c-0.1,1.8-1.2,3.2-2.8,3.7c-0.2,0.1-0.4,0.1-0.6,0.2c1.5,2.1,3,4.1,4.5,6.3c-0.8,0-1.4,0-2,0c-0.2,0-0.4-0.3-0.6-0.5
	c-1.2-1.7-2.4-3.5-3.6-5.2c-0.2-0.3-0.6-0.4-0.8-0.6C98,86.9,97.9,87,97.8,87.1z M97.9,80c0,2,0,3.6,0,5.5c1.1-0.2,2.1-0.3,3-0.6
	c1-0.3,1.3-1.2,1.3-2.2c0-1-0.3-1.8-1.3-2.1C100,80.4,99,80.2,97.9,80z"/>
<path d="M291.3,78.6c1.5,0,3-0.1,4.5,0c2.1,0.2,3.3,1.7,3.4,3.8c0.1,2-1,3.6-3,4.2c-0.1,0-0.2,0.1-0.4,0.1c1.5,2.1,3,4.1,4.6,6.3
	c-0.8,0-1.4,0-2,0c-0.2,0-0.4-0.3-0.6-0.5c-1.2-1.7-2.4-3.5-3.6-5.2c-0.2-0.3-0.6-0.4-0.8-0.6c-0.1,0.1-0.1,0.1-0.2,0.2c0,2,0,4,0,6
	c-0.6,0-1.2,0-1.8,0C291.3,88.2,291.3,83.4,291.3,78.6z M293.1,85.6c1.1-0.2,2.2-0.3,3.2-0.7c1.5-0.6,1.7-3.1,0.4-4
	c-1.1-0.7-2.3-0.8-3.6-0.7C293.1,82,293.1,83.6,293.1,85.6z"/>
<path d="M276.7,77.8c2.4,5.2,4.7,10.2,7,15.2c-0.1,0-0.1,0.1-0.2,0.1c-1.8,0.1-1.8,0.1-2.5-1.5c-0.3-0.7-0.5-1.7-1.1-2
	c-0.5-0.4-1.5-0.1-2.2-0.1c-1.2,0-2.5,0-3.7,0c-0.3,0-0.6,0.2-0.8,0.5c-0.4,0.8-0.8,1.6-1.1,2.4c-0.2,0.6-0.5,0.8-1.2,0.7
	c-0.3-0.1-0.7,0-1.2,0C272,88,274.3,83,276.7,77.8z M274.2,87.7c1.7,0,3.3,0,5.1,0c-0.8-1.9-1.6-3.8-2.5-5.8
	C275.8,84,275,85.8,274.2,87.7z"/>
<path d="M118.3,77.8c2.4,5.2,4.7,10.2,7,15.3c-0.7,0-1.2,0-1.7,0c-0.2,0-0.4-0.3-0.5-0.5c-0.4-0.9-0.8-1.7-1.2-2.6
	c-0.2-0.4-0.4-0.6-0.8-0.6c-1.8,0-3.7,0-5.5,0c-0.4,0-0.7,0.2-0.8,0.6c-0.3,0.8-0.8,1.6-1.1,2.4c-0.2,0.6-0.6,0.9-1.2,0.8
	c-0.3,0-0.7,0-1.1,0C113.6,88,115.9,83,118.3,77.8z M118.3,82c-0.9,2-1.7,3.9-2.5,5.8c1.7,0,3.3,0,5.1,0C120,85.8,119.2,84,118.3,82
	z"/>
<path d="M230.5,77.8c2.4,5.2,4.6,10.1,7,15.3c-0.7,0-1.2,0-1.7,0c-0.2,0-0.4-0.2-0.5-0.4c-0.4-0.9-0.8-1.8-1.2-2.7
	c-0.2-0.4-0.4-0.6-0.8-0.5c-1.8,0-3.6,0-5.4,0c-0.5,0-0.7,0.1-0.9,0.6c-0.3,0.8-0.8,1.6-1.1,2.4c-0.2,0.6-0.6,0.9-1.2,0.8
	c-0.3,0-0.7,0-1.1,0C225.9,88,228.2,83,230.5,77.8z M230.5,81.9c-0.9,2-1.7,3.9-2.5,5.8c1.7,0,3.3,0,5,0
	C232.2,85.8,231.4,83.9,230.5,81.9z"/>
<path d="M79.6,93.1c0-4.8,0-9.6,0-14.5c2.6,0,5.2,0,7.8,0c0,0.5,0,1,0,1.6c-2,0-3.9,0-5.9,0c0,1.4,0,2.7,0,4c1.9,0,3.8,0,5.7,0
	c0,0.6,0,1.1,0,1.7c-1.9,0-3.8,0-5.7,0c0,1.9,0,3.7,0,5.5c2,0,3.9,0,5.9,0c0,0.6,0,1.1,0,1.6C84.8,93.1,82.2,93.1,79.6,93.1z"/>
<path d="M198.6,80.2c0,1.4,0,2.7,0,4c1.9,0,3.8,0,5.8,0c0,0.6,0,1.1,0,1.7c-1.9,0-3.8,0-5.7,0c0,1.8,0,3.6,0,5.5c2,0,3.9,0,5.9,0
	c0,0.6,0,1.1,0,1.6c-2.6,0-5.2,0-7.8,0c0-4.8,0-9.6,0-14.5c2.6,0,5.2,0,7.8,0c0,0.5,0,1,0,1.6C202.6,80.2,200.6,80.2,198.6,80.2z"/>
<path d="M335.2,80.5c-0.5,0.3-0.9,0.6-1.4,0.8c-0.2-0.3-0.4-0.5-0.7-0.7c-1.1-1-3-0.8-3.8,0.4c-0.5,0.8-0.4,1.7,0.3,2.3
	c0.4,0.3,0.9,0.6,1.4,0.8c0.8,0.4,1.6,0.7,2.4,1.1c1.6,0.9,2.3,2.3,2.1,4.1c-0.2,1.9-1.2,3.2-3,3.8c-2.9,1-5.7-0.7-6.2-3.8
	c0.6-0.1,1.2-0.3,1.7-0.4c0.5,2,1.5,2.8,3.1,2.7c1.1-0.1,2-0.8,2.3-1.9c0.3-1.1,0.1-2.1-0.9-2.8c-0.6-0.4-1.3-0.7-1.9-1
	c-0.6-0.3-1.1-0.5-1.7-0.8c-1.7-0.9-2.3-2.2-2.1-3.9c0.2-1.5,1.6-2.7,3.3-3C332.6,77.9,334.3,78.7,335.2,80.5z"/>
<path d="M143.5,81.2c-3.4-1.9-6.3-1.6-8.2,0.7c-1.8,2.2-1.8,5.6,0,7.7c2.1,2.4,4.8,2.6,8.2,0.6c0,0.7,0,1.3,0,1.9
	c0,0.2-0.3,0.4-0.5,0.5c-2.9,1.3-5.6,1.1-8.1-0.9c-2.5-1.9-3.3-4.6-2.6-7.6c0.7-3,2.7-4.9,5.7-5.7c1.6-0.4,3.2-0.3,4.7,0.3
	c0.6,0.2,0.9,0.5,0.8,1.2C143.4,80.3,143.5,80.7,143.5,81.2z"/>
<path d="M182.8,93.9c-2.2-5.2-4.2-10.2-6.3-15.4c0.7,0,1.2-0.1,1.7,0c0.2,0,0.5,0.4,0.6,0.6c1.3,3.1,2.5,6.2,3.8,9.3
	c0.1,0.2,0.1,0.3,0.3,0.6c0.2-0.3,0.3-0.6,0.4-0.8c1.2-3,2.4-6,3.6-8.9c0.3-0.7,0.6-1,1.4-0.9c0.3,0,0.6,0,1,0
	C187,83.7,185,88.7,182.8,93.9z"/>
<path d="M68.3,93.1c-0.6,0-1.2,0-1.8,0c0-4.3,0-8.5,0-12.9c-1.2,0-2.3,0-3.4,0c0-0.6,0-1.1,0-1.6c2.9,0,5.8,0,8.7,0c0,0.5,0,1,0,1.6
	c-1.1,0-2.2,0-3.4,0C68.3,84.5,68.3,88.8,68.3,93.1z"/>
<path d="M154.1,80.2c-1.2,0-2.3,0-3.4,0c0-0.6,0-1.1,0-1.6c2.9,0,5.7,0,8.7,0c0,0.5,0,1,0,1.6c-1.1,0-2.2,0-3.4,0
	c0,4.3,0,8.6,0,12.9c-0.6,0-1.2,0-1.9,0C154.1,88.8,154.1,84.5,154.1,80.2z"/>
<path d="M32,78.6c0.6,0,1.1,0,1.8,0c0,4.8,0,9.6,0,14.5c-0.6,0-1.1,0-1.8,0C32,88.2,32,83.4,32,78.6z"/>
<path d="M167.1,78.6c0.6,0,1.1,0,1.7,0c0,4.9,0,9.7,0,14.5c-0.6,0-1.1,0-1.7,0C167.1,88.3,167.1,83.5,167.1,78.6z"/>
</svg>
