<svg xmlns="http://www.w3.org/2000/svg" viewBox="0 0 176.8 129.2">
<style type="text/css">
	.st0{fill:#FFFFFF;}
</style>
<path class="st0" d="M1.7,80.1C6.4,65,19.4,54.9,35.1,54v10.6c-10.6,0.9-19.7,8-23.1,18L1.7,80.1z"/>
<path class="st0" d="M0,92.3c-0.1-2.7,0.1-5.2,0.6-7.9l10.3,2.6c-0.2,1.4-0.3,2.8-0.3,4.3c0,0,0,0.1,0,0.1L0,92.3z"/>
<path class="st0" d="M37.3,128.5c-5,0-9.9-1-14.6-3c-12.2-5.2-20.5-15.9-22.3-28.9L11,95.8c2.2,12.6,13.3,22.2,26.3,22.2
	c10,0,19.1-5.5,23.7-14.3l9.7,4.1C64.4,120.5,51.6,128.5,37.3,128.5z"/>
<path class="st0" d="M62.7,99.6c0.9-2.7,1.3-5.5,1.3-8.4c0-1.6-0.1-3.2-0.4-4.7l10.2-2.7c1.4,6.8,1,13.4-1.4,20L62.7,99.6z"/>
<path class="st0" d="M102,16.6c-2.4-1.2-3.4-0.1-5.6-0.8c-1.5-0.3,0.3-2.4,0.2-3.4c-5.5-0.4-8.3,3.8-12.4,5.6
	c-2.8-0.3,0.5-3.9-2.5-4.1c-1.6,2-3.1,4.3-3.6,8c-2.6-5-10.7,7.6-6.6,10.7c0,0.4-2.1,1.7-3.5,3.5c0.4-3.7,0.6-6.9,0.7-9.2
	c-2.6-10.6,0.5-0.2-3.7-10c0,0-1.6-1.5-2.6,5.4c-0.5-1.1-0.7,0.9-0.6,3c-0.9-1.3-1.9-2.6-2.6-4.3C53.4,19.1,53,10.4,46.9,9.2
	c-1.4-0.5-0.6,2.1-2.3,1.2C40,7.5,37.5-1,31.4,0.1c-2.1,2,0.7,5.7-0.6,8.1c-3-1.5-4.9-4.5-8.9-4.6c-0.9,1.1-0.6,3.8-1.9,4.3
	c-5.3-0.2-9.3,1.5-14,2.2c2.1,3.6,3.7,8,8.8,7.7c0.2,2-1,2.4-0.1,3.7c2,1,5.4,0.1,7.2,1.4c0.3,1.9-1.6,0.7-1,3.1
	c6.4,2.8,13.7,3.2,21.1,1.8c0.5,1.6-4.4,2.9,0.7,3.8c4.5,0.4,11.3-2.7,10.7-0.2c-1.6,3.7,5.3,0,9.6,0.6c1.3,9.4,0.5,16.7-5.2,27.8
	c-5.3-3.4-11.5-5.4-18.3-5.8v10.6c10.4,0.9,19.4,7.8,22.9,17.6l10.2-2.7c-2-6-5.2-11.2-9.4-15.3c1.8-6.9,3.3-16.1,4.2-24.1
	c2.6-1.8,2-2.5,4.4-3.9c2,0.6,2.3,1.8,3.6,2.8c2.1-0.3,8.8,0.3,8.5-1.7c1.2-1.4,4-0.3,6.4,0.4c0.4-4,4.4-5.1,9.2-4.4
	c1.9-5.5,8.7-3.1,11.9-6.4C111.2,21.9,100.7,22.4,102,16.6z"/>
<g>
	<path class="st0" d="M110.4,68.5c0,7.8-5.6,13.3-13.3,13.3s-13.3-5.5-13.3-13.3c0-7.3,6.4-12.4,13.3-12.4S110.4,61.2,110.4,68.5z
		 M90.2,68.5c0,4.2,3.1,7.2,6.8,7.2c3.7,0,6.8-3,6.8-7.2c0-3.3-3.1-6.4-6.8-6.4C93.3,62.1,90.2,65.2,90.2,68.5z"/>
	<path class="st0" d="M112.5,56.9h9.6c5.2,0,8.8,2.4,8.8,7.9c0,5.7-3.1,8.2-8.5,8.2h-3.5v8h-6.3V56.9z M118.7,67.9h1.1
		c2.3,0,4.5,0,4.5-2.9c0-3-2.1-3.1-4.5-3.1h-1.1V67.9z"/>
	<path class="st0" d="M139.1,62.2v4h7.1v5.3h-7.1v4.2h7.4V81h-13.7V56.9h13.7v5.3H139.1z"/>
	<path class="st0" d="M149.6,56.9h6.3l11.5,14.7h0.1V56.9h6.3V81h-6.3l-11.5-14.8h-0.1V81h-6.3V56.9z"/>
</g>
<g>
	<path class="st0" d="M98.3,92.7c-1.1-0.9-2.4-1.5-3.9-1.5c-1.1,0-2.5,0.6-2.5,1.9c0,1.3,1.6,1.8,2.6,2.1l1.5,0.4
		c3.1,0.9,5.5,2.5,5.5,6.1c0,2.2-0.5,4.5-2.3,6c-1.7,1.5-4.1,2.1-6.3,2.1c-2.8,0-5.6-0.9-7.9-2.5l2.5-4.7c1.5,1.3,3.2,2.3,5.2,2.3
		c1.4,0,2.8-0.7,2.8-2.3c0-1.6-2.3-2.2-3.5-2.5c-3.6-1-6-2-6-6.3c0-4.5,3.2-7.5,7.7-7.5c2.3,0,5,0.7,7,1.8L98.3,92.7z"/>
	<path class="st0" d="M103.5,86.9h8.9c4.8,0,8.1,2.2,8.1,7.3c0,5.3-2.8,7.6-7.9,7.6h-3.3v7.4h-5.8V86.9z M109.3,97.2h1
		c2.1,0,4.2,0,4.2-2.7c0-2.8-1.9-2.8-4.2-2.8h-1V97.2z"/>
	<path class="st0" d="M125.9,105.4l-1.5,3.9h-6.2l8.6-22.3h6.3l8.4,22.3h-6.2l-1.5-3.9H125.9z M129.9,93.8L129.9,93.8l-2.5,7.1h4.8
		L129.9,93.8z"/>
	<path class="st0" d="M158.5,94.4c-1.2-1.6-3.1-2.5-5.1-2.5c-3.6,0-6,2.7-6,6.2c0,3.5,2.4,6.1,6,6.1c1.9,0,3.8-0.9,5-2.4v7
		c-1.9,0.6-3.3,1-5.1,1c-3.1,0-6.1-1.2-8.4-3.3c-2.5-2.2-3.6-5.1-3.6-8.4c0-3.1,1.2-6,3.3-8.2c2.2-2.3,5.4-3.6,8.5-3.6
		c1.9,0,3.6,0.4,5.3,1.1V94.4z"/>
	<path class="st0" d="M167.2,91.8v3.7h6.5v4.9h-6.5v3.9h6.9v4.9h-12.7V86.9h12.7v4.9H167.2z"/>
</g>
<g>
	<path class="st0" d="M88.2,126.8l-0.8,2.1h-3.3l4.6-11.9h3.4l4.5,11.9h-3.3l-0.8-2.1H88.2z M90.4,120.6L90.4,120.6l-1.3,3.8h2.6
		L90.4,120.6z"/>
	<path class="st0" d="M107.5,116.9v6.7c0,1.5-0.1,3.1-1.3,4.2c-1,1-2.6,1.3-4,1.3c-1.4,0-3-0.3-4-1.3c-1.2-1.2-1.2-2.7-1.2-4.2v-6.7
		h3.1v6.3c0,1.5,0.1,3.2,2.1,3.2c2,0,2.1-1.7,2.1-3.2v-6.3H107.5z"/>
	<path class="st0" d="M113.8,128.8h-3.1v-9.3h-2.6v-2.6h8.2v2.6h-2.6V128.8z"/>
	<path class="st0" d="M124.7,121.5v-4.6h3.1v11.9h-3.1V124h-4.5v4.9h-3.1v-11.9h3.1v4.6H124.7z"/>
	<path class="st0" d="M142,122.7c0,3.9-2.8,6.6-6.6,6.6c-3.8,0-6.6-2.7-6.6-6.6c0-3.6,3.2-6.1,6.6-6.1
		C138.9,116.5,142,119,142,122.7z M132.1,122.7c0,2.1,1.5,3.6,3.4,3.6c1.9,0,3.4-1.5,3.4-3.6c0-1.6-1.5-3.2-3.4-3.2
		C133.6,119.5,132.1,121,132.1,122.7z"/>
	<path class="st0" d="M153,128.8h-3.9l-2.9-4.6h0v4.6h-3.1v-11.9h4.6c2.4,0,4.1,1.1,4.1,3.7c0,1.6-0.9,3.1-2.6,3.4L153,128.8z
		 M146.2,122.3h0.3c1,0,2.1-0.2,2.1-1.5c0-1.3-1.1-1.5-2.1-1.5h-0.3V122.3z"/>
	<path class="st0" d="M156.5,128.8h-3.1v-11.9h3.1V128.8z"/>
	<path class="st0" d="M162.9,128.8h-3.1v-9.3h-2.6v-2.6h8.2v2.6h-2.6V128.8z"/>
	<path class="st0" d="M164.9,116.9h3.7l2.2,3.2l2.2-3.2h3.7l-4.4,6.2v5.7h-3.1v-5.7L164.9,116.9z"/>
</g>
</svg>
