<svg xmlns="http://www.w3.org/2000/svg" viewBox="0 0 97 55">
<defs>
    <style>
      .cls-1 {
        fill: #221f1f;
        fill-rule: evenodd;
      }
    </style>
  </defs>
  <path class="cls-1" d="M671.747,5874.21c1.722-.55,3.375-1.03,5-1.61a5.609,5.609,0,0,0,1.632-.98c0.8-.67.77-1.53-0.165-1.94a43.583,43.583,0,0,0-4.595-1.63c-0.82-.26-1.683-0.38-2.5-0.56,1.706-.49,3.414-0.93,5.087-1.48a6.125,6.125,0,0,0,1.847-1.03c0.961-.75.959-1.75-0.12-2.29a35.354,35.354,0,0,0-4.286-1.63,15.516,15.516,0,0,0-1.949-.43c1.372-.36,2.64-0.65,3.882-1.02a7.015,7.015,0,0,0,1.732-.8c1.625-1.02,1.627-2.35-.1-3.13a45.548,45.548,0,0,0-4.75-1.62c-0.4-.13-0.815-0.2-1.124-0.27,1.613-.46,3.293-0.9,4.946-1.42a4.922,4.922,0,0,0,1.533-.87,1.323,1.323,0,0,0,.048-2.24,6.545,6.545,0,0,0-1.865-1.13,26.118,26.118,0,0,0-7.421-1.5,0.833,0.833,0,0,0-.574.15c-0.5.56-.958,1.15-1.469,1.78,2.426,0.47,4.873.39,6.991,1.58-0.008.13-.017,0.26-0.025,0.39-5.4,1.31-10.953,1.41-16.492,1.96V5838H685.42v54.78h-5.927v-1.41c0-2.11-.037-4.23.017-6.34a2.179,2.179,0,0,0-1.206-2.08,16.577,16.577,0,0,0-5.034-1.65c-0.323-.07-0.65-0.12-1.192-0.23,0.594-.14,1.006-0.21,1.4-0.34,1.3-.43,2.62-0.81,3.87-1.35a2.259,2.259,0,0,0,1.658-2.11c-0.054-1.11-1.006-1.54-1.875-1.8-1.581-.47-3.207-0.79-4.815-1.16C672.14,5874.27,671.961,5874.25,671.747,5874.21Zm19.483-6.97H694.1c0.554,2.63,1.113,5.28,1.65,7.83,0.6-2.33,1.23-4.75,1.829-7.19a0.772,0.772,0,0,1,.911-0.7c1.832,0.04,1.835.01,2.331,1.8,0.569,2.05,1.135,4.1,1.66,5.99,0.511-2.45,1.06-5.09,1.611-7.73h2.879c-0.36,1.43-.7,2.8-1.052,4.17-0.559,2.21-1.141,4.41-1.669,6.62a0.633,0.633,0,0,1-.765.59c-0.615-.03-1.234-0.03-1.849,0a0.578,0.578,0,0,1-.679-0.53c-0.564-2.1-1.155-4.2-1.739-6.3a1.214,1.214,0,0,0-.151-0.23c-0.565,1.97-1.115,3.88-1.663,5.8-0.359,1.25-.358,1.25-1.674,1.25-1.645,0-1.649,0-2.064-1.62q-1.149-4.515-2.29-9.03C691.32,5867.74,691.285,5867.51,691.23,5867.24Zm27.637,6.3H711.1a2.3,2.3,0,0,0,1.442,2.49c1.388,0.52,2.441.04,3.746-1.74,0.761,0.39,1.533.78,2.374,1.21a5.79,5.79,0,0,1-2.628,2.6,6.33,6.33,0,0,1-4.641.39,4.938,4.938,0,0,1-3.693-4.85,9.934,9.934,0,0,1,.464-3.28c0.836-2.46,2.946-3.57,5.927-3.32a4.966,4.966,0,0,1,4.49,4.19C718.717,5871.94,718.762,5872.68,718.867,5873.54Zm-3.5-2.11a1.976,1.976,0,0,0-2-2.08,2.191,2.191,0,0,0-2.274,2.08h4.274Zm5.474,7.18v-11.48c2.341,0.07,4.634.08,6.916,0.25a2.582,2.582,0,0,1,2.375,2.28,2.487,2.487,0,0,1-1.74,2.95,0.928,0.928,0,0,0-.128.15,1.621,1.621,0,0,0,.3.13,2.44,2.44,0,0,1,1.989,2.06,2.819,2.819,0,0,1-1.417,3.02,5.657,5.657,0,0,1-1.522.55,5.979,5.979,0,0,1-1.272.09C724.528,5878.62,722.708,5878.61,720.844,5878.61Zm2.76-2.16c1.026,0,1.974.05,2.914-.01a1.177,1.177,0,0,0,1.17-1.2,1.151,1.151,0,0,0-.921-1.33c-1.045-.07-2.1-0.02-3.163-0.02v2.56Zm0.027-7.04v2.23c0.932,0,1.8.03,2.672-.01a1.012,1.012,0,0,0,1.034-1.12,0.957,0.957,0,0,0-1.038-1.08C725.432,5869.37,724.559,5869.41,723.631,5869.41Zm9.317-2.29c2.357,0.08,4.675.09,6.978,0.28a2.551,2.551,0,0,1,2.31,2.35,2.478,2.478,0,0,1-1.7,2.85,1.145,1.145,0,0,0-.2.17c0.157,0.06.256,0.1,0.359,0.13a2.438,2.438,0,0,1,1.97,2.16,2.81,2.81,0,0,1-1.467,2.93,3.617,3.617,0,0,1-1.6.54c-2.2.06-4.4,0.02-6.656,0.02v-11.43Zm2.751,9.33c1.018,0,1.963.05,2.9-.02a1.175,1.175,0,0,0,1.188-1.25,1.145,1.145,0,0,0-.982-1.28c-1.023-.07-2.054-0.02-3.106-0.02v2.57Zm0-4.69c1.007-.05,1.926-0.06,2.834-0.16a0.969,0.969,0,0,0,.881-1.09,0.89,0.89,0,0,0-.753-1.04c-0.972-.11-1.956-0.11-2.962-0.16v2.45Zm11.141,6.82c0-1.57.031-3.07-.018-4.56a2.593,2.593,0,0,0-.4-1.3c-1.217-1.81-2.488-3.58-3.842-5.51,1.147,0,2.169-.02,3.189.02a0.857,0.857,0,0,1,.42.42c0.7,1.1,1.389,2.2,2.119,3.36,0.737-1.16,1.448-2.24,2.127-3.35a0.852,0.852,0,0,1,.856-0.47c0.852,0.03,1.706.01,2.707,0.01-0.183.29-.3,0.49-0.441,0.69-1.145,1.6-2.31,3.19-3.427,4.81a2.33,2.33,0,0,0-.383,1.16c-0.047,1.31-.018,2.61-0.018,3.92v0.8h-2.886Zm-89.83-5.29v-4.56c5.239,0.51,10.492.45,15.617,1.64a5.351,5.351,0,0,1,.893.47,6.868,6.868,0,0,1-1.354.59c-2.209.4-4.417,0.83-6.644,1.11-2.607.33-5.232,0.51-7.85,0.75C657.471,5873.31,657.261,5873.29,657.015,5873.29Zm16.448-16.03a12.719,12.719,0,0,1-1.9.62c-2.876.42-5.757,0.81-8.642,1.15-1.572.19-3.157,0.28-4.736,0.4-0.372.03-.748,0-1.163,0v-4.38C661.7,5854.82,672.244,5856.14,673.463,5857.26ZM657,5879.99v-4.04c2.2-.58,15.318.55,16.377,1.49a5.448,5.448,0,0,1-1.131.54c-1.687.36-3.374,0.76-5.082,0.98-3.123.41-6.261,0.69-9.394,1.02A6.376,6.376,0,0,1,657,5879.99Zm0.013-13.75v-3.98c2.572-.44,15.669.93,16.437,1.76a4.9,4.9,0,0,1-2.59.84c-3.661.43-7.331,0.8-11,1.18C658.946,5866.13,658.025,5866.17,657.013,5866.24Zm57.4,16.82c-0.735,2.04-1.458,4.04-2.18,6.04-0.393,1.09-.767,2.19-1.188,3.28a2.19,2.19,0,0,1-.515.55,2.335,2.335,0,0,1-.436-0.56c-0.86-2.48-1.7-4.97-2.543-7.46-0.034-.1-0.076-0.2-0.187-0.48-0.516,1.51-.974,2.84-1.426,4.18-0.432,1.27-.849,2.56-1.3,3.83a1.793,1.793,0,0,1-.416.49,1.688,1.688,0,0,1-.492-0.49c-1.109-3.02-2.195-6.05-3.284-9.09a1.63,1.63,0,0,1-.056-0.28c0.566-.25.8,0,0.976,0.52,0.91,2.64,1.847,5.26,2.83,8.06,0.142-.32.237-0.49,0.3-0.68,0.813-2.47,1.615-4.95,2.441-7.42a2.522,2.522,0,0,1,.453-0.63,2.4,2.4,0,0,1,.48.59c0.831,2.47,1.637,4.95,2.45,7.42,0.066,0.21.138,0.4,0.261,0.76,0.292-.81.54-1.48,0.781-2.16,0.712-2.01,1.437-4.01,2.12-6.03A0.607,0.607,0,0,1,714.409,5883.06Zm20.967-.15a37.064,37.064,0,0,1,4.64.25,4.7,4.7,0,0,1,3.875,4.91,4.9,4.9,0,0,1-4.619,4.74c-1.273.08-2.557,0.01-3.9,0.01v-9.91Zm0.743,9.22c1.1,0,2.142.07,3.171-.02a4.1,4.1,0,0,0,3.784-3.56,4.184,4.184,0,0,0-2.347-4.45c-1.489-.69-3.046-0.37-4.608-0.42v8.45Zm-9.867-3.39v4.05c-0.276.02-.5,0.03-0.75,0.04v-9.78c1.738,0,3.45-.13,5.129.04a2.652,2.652,0,0,1,2.488,3.12,2.4,2.4,0,0,1-1.378,1.94,12.453,12.453,0,0,1-1.4.55q1.527,1.995,3.086,4.02c-0.791.18-.791,0.18-1.21-0.36-0.809-1.05-1.6-2.13-2.442-3.15a1.461,1.461,0,0,0-.927-0.45C728.025,5888.69,727.2,5888.74,726.252,5888.74Zm0.036-.57c1.457-.07,2.876-0.05,4.271-0.22a2.117,2.117,0,0,0,1.864-2.1,1.912,1.912,0,0,0-1.778-2.05,42.179,42.179,0,0,0-4.357-.03v4.4Zm-9.828-25.89h-7.048v-9.8a2.777,2.777,0,0,1,.438-0.08c1.992,0,3.985.01,5.977,0,0.44-.01.7,0.09,0.514,0.69h-3.233c-0.83,0-1.661-.02-2.49.01a0.667,0.667,0,0,0-.494.31c-0.037,1.16-.023,2.32-0.023,3.54h5.6c0.015,0.25.027,0.44,0.043,0.69H710.16v3.94h6.253C716.431,5861.84,716.444,5862.04,716.46,5862.28Zm-16.69,0h-0.749c-0.013-.24-0.035-0.45-0.035-0.66q0-4.275,0-8.54c0-.27-0.157-0.67.368-0.68s0.4,0.36.405,0.65c0.006,1.28,0,2.55,0,3.87h6.288c0-.73,0-1.46,0-2.18,0-.6.02-1.19-0.006-1.78-0.023-.5.172-0.66,0.686-0.5v9.81h-0.681c0-1.34-.022-2.64.011-3.94a0.546,0.546,0,0,0-.672-0.69c-1.843.03-3.686,0.01-5.622,0.01v4.63Zm0.791,30.48a0.663,0.663,0,0,1-1-.44,15.4,15.4,0,0,0-.825-1.81,0.887,0.887,0,0,0-.62-0.41q-2.486-.045-4.972,0a0.8,0.8,0,0,0-.567.38,15.347,15.347,0,0,0-.828,1.81,0.663,0.663,0,0,1-.948.49c0.066-.18.12-0.37,0.2-0.55,1.347-2.92,2.69-5.84,4.057-8.75a0.93,0.93,0,0,1,.576-0.55,1.03,1.03,0,0,1,.651.56c1.381,2.93,2.733,5.87,4.092,8.82C700.445,5892.45,700.5,5892.61,700.561,5892.76Zm-4.9-9.05c-0.9,1.98-1.729,3.8-2.581,5.67h5.155C697.377,5887.5,696.557,5885.69,695.657,5883.71Zm18.521,9.05q1.223-2.655,2.441-5.28c0.645-1.4,1.282-2.8,1.947-4.19a0.728,0.728,0,0,1,.485-0.38,0.673,0.673,0,0,1,.526.31c1.487,3.17,2.95,6.35,4.426,9.54a0.7,0.7,0,0,1-1.039-.49c-0.288-.72-0.478-1.7-1.034-2.04-0.588-.37-1.555-0.13-2.357-0.14-0.948-.02-1.895.01-2.842-0.02a0.724,0.724,0,0,0-.81.51c-0.229.6-.539,1.16-0.77,1.75A0.649,0.649,0,0,1,714.178,5892.76Zm7.477-3.37c-0.859-1.89-1.687-3.71-2.582-5.67-0.9,1.98-1.732,3.79-2.589,5.67h5.171Zm30.586-5.39c-0.237.26-.379,0.41-0.538,0.58a4.015,4.015,0,0,0-3.313-1.02,3.082,3.082,0,0,0-1.508.67,1.564,1.564,0,0,0,.3,2.58,13.69,13.69,0,0,0,2.2.76c0.56,0.19,1.14.32,1.677,0.56a2.165,2.165,0,0,1,1.422,2.1,2.467,2.467,0,0,1-1.379,2.31,5.147,5.147,0,0,1-5.819-1.18c0.132-.15.267-0.3,0.44-0.5a4.575,4.575,0,0,0,3.809,1.41,3.468,3.468,0,0,0,1.708-.72,1.637,1.637,0,0,0-.452-2.72,20.639,20.639,0,0,0-2.222-.7,9.711,9.711,0,0,1-1.6-.56,2.336,2.336,0,0,1-.3-4.08,4.27,4.27,0,0,1,4.207-.27A9.777,9.777,0,0,1,752.241,5884Zm-62.387-30.91c-0.177-.51-0.041-0.7.421-0.69q3.3,0.015,6.609-.01c0.472,0,.59.19,0.442,0.69h-3.344v9.19h-0.689c-0.016-.19-0.048-0.39-0.049-0.6,0-2.58-.021-5.17.011-7.75,0.008-.64-0.135-0.89-0.816-0.85C691.593,5853.14,690.738,5853.09,689.854,5853.09Z" transform="translate(-657 -5838)"/>
</svg>
