<?xml version="1.0" encoding="utf-8"?>
<!-- Generator: Adobe Illustrator 17.1.0, SVG Export Plug-In . SVG Version: 6.00 Build 0)  -->
<!DOCTYPE svg PUBLIC "-//W3C//DTD SVG 1.1//EN" "http://www.w3.org/Graphics/SVG/1.1/DTD/svg11.dtd">
<svg version="1.1" id="Layer_1" xmlns="http://www.w3.org/2000/svg" xmlns:xlink="http://www.w3.org/1999/xlink" x="0px" y="0px"
	 viewBox="0 0 99.3 105.5" enable-background="new 0 0 99.3 105.5" xml:space="preserve">
<g opacity="0.31">
	<path fill="#FFFFFF" d="M82.7,34.7c0.1,17.8-14.5,32.6-32.8,32.3c-17.3-0.3-31.8-14.3-31.8-32.4c0-18,14.8-32.6,33-32.2
		C68.7,2.7,82.8,17.1,82.7,34.7z M50.4,48.8c4.9,0,9.8,0,14.7,0c0.4,0,0.6-0.1,0.6-0.6c0-7.3,0-14.6,0-21.9c0-0.3-0.1-0.6-0.3-0.8
		c-2-2.6-4.1-5.2-6.2-7.8c-0.8-1.1-1.7-1.1-2.5,0c-1.7,2.3-3.5,4.5-5.2,6.8c-0.3,0.4-0.7,0.9-1.3,0.7c-0.4-0.1-0.8-0.4-1-0.7
		c-1.8-2.2-3.5-4.5-5.2-6.8c-0.8-1-1.6-1-2.4,0c-2.1,2.6-4.1,5.2-6.2,7.8c-0.2,0.2-0.3,0.6-0.3,0.9c0,7.3,0,14.6,0,21.8
		c0,0.5,0.1,0.7,0.7,0.7C40.7,48.8,45.6,48.8,50.4,48.8z"/>
	<path fill="#FFFFFF" d="M30.1,101.5c0-0.3,0-0.7,0-1c0-0.1,0.3-0.3,0.5-0.3c0.6-0.1,1.2-0.1,1.7-0.3c0.9-0.2,1.3-0.7,1.3-1.7
		c0-6,0-12.1,0-18.1c0-0.9-0.3-1.3-1.2-1.6c-0.5-0.2-1.1-0.3-1.6-0.3c-0.8,0-0.7-0.5-0.7-0.9c0-0.6,0.4-0.5,0.8-0.5
		c2.2,0,4.5,0.1,6.7,0.1c0.5,0,1,0,1.6-0.1c0.4,0,0.7,0.1,0.9,0.5c2,4.2,4,8.3,5.9,12.5c0.7,1.5,1.4,3,2.2,4.7
		c2.9-6,5.8-11.8,8.6-17.6c2.6,0,5.1,0,7.7,0c0.4,0,0.9,0,1.3-0.1c0.5,0,0.5,0.3,0.5,0.6c0,0.3,0.2,0.8-0.5,0.8
		c-0.8,0.1-1.5,0.2-2.3,0.4c-0.6,0.2-0.9,0.6-0.9,1.4c0,6.1,0,12.2,0,18.3c0,0.9,0.3,1.4,1.2,1.6c0.6,0.2,1.2,0.3,1.8,0.3
		c0.6,0,0.8,0.2,0.7,0.8c0,0.2,0,0.4,0,0.6c-4.4,0-8.7,0-13.1,0c0-0.2,0-0.4-0.1-0.6c-0.1-0.6,0.1-0.8,0.8-0.9
		c0.8,0,1.5-0.3,2.3-0.5c0.5-0.1,0.7-0.6,0.7-1.1c0-5.7,0-11.3,0-17c0-0.1,0-0.3-0.1-0.6c-0.2,0.4-0.4,0.6-0.5,0.8
		c-3.1,6.5-6.2,13-9.4,19.6c-0.2,0.4-0.4,0.6-0.9,0.6c-0.5,0-0.7-0.3-0.9-0.7c-3-6.5-6-12.9-9.1-19.4c-0.1-0.3-0.2-0.5-0.4-0.7
		c-0.1,0-0.1,0-0.2,0c0,0.2,0,0.4,0,0.6c0,5.5,0,11,0,16.6c0,0.9,0.3,1.4,1.2,1.6c0.6,0.2,1.3,0.2,1.9,0.3c0.8,0.1,0.8,0,0.8,0.8
		c0,0.2,0,0.3,0,0.5C36.2,101.5,33.2,101.5,30.1,101.5z"/>
	<path fill="#FFFFFF" d="M19,88.2c0.2,0,0.5,0.1,0.7,0.1c1.7,0.1,3.4,0.4,4.9,1.3c1.8,1.1,2.7,2.7,2.8,4.8c0.2,4.3-2.6,6.2-5.4,6.7
		c-1.4,0.3-2.9,0.5-4.4,0.5c-4.1,0-8.3,0-12.4-0.1c-0.8,0-1.6,0-2.4,0c0-0.4,0-0.8,0-1.2c0.7-0.1,1.4-0.2,2.1-0.4
		c1.1-0.2,1.4-0.7,1.4-1.8c0-6,0-11.9,0-17.9c0-1.2-0.4-1.7-1.6-1.9c-0.5-0.1-1-0.2-1.5-0.1c-0.6,0-0.5-0.4-0.5-0.8
		c0-0.4,0-0.7,0.5-0.7c2.2,0.1,4.5,0.1,6.7,0.1c2.9,0,5.8-0.1,8.7-0.1c1.7,0,3.3,0.1,4.9,0.8c1.7,0.8,2.5,2.1,2.6,3.9
		c0.2,3.8-2.2,5.3-4.8,6c-0.8,0.2-1.6,0.3-2.3,0.5C19,88,19,88.1,19,88.2z M12,94.5c0,1.6,0,3.2,0,4.9c0,0.5,0.1,0.7,0.6,0.7
		c1.5-0.1,3,0,4.5-0.2c1.7-0.2,3.1-1,3.7-2.8c0.4-1.3,0.5-2.7,0.3-4c-0.4-2.5-1.3-3.5-3.9-3.9c-1.3-0.2-2.7-0.1-4.1-0.1
		C12,89,12,88.8,12,90.1C12,91.6,12,93,12,94.5z M12,82.8c0,1.4,0,2.7,0,4.1c0,0.3,0,0.7,0.5,0.6c1.5-0.1,3,0,4.4-0.2
		c1.6-0.2,2.7-1.1,3.1-2.8c0.2-0.8,0.3-1.6,0.2-2.5c-0.1-2-1-3.3-2.9-3.7c-1.6-0.3-3.2-0.2-4.8-0.2c-0.4,0-0.4,0.3-0.4,0.7
		C12,80.2,12,81.5,12,82.8z"/>
	<path fill="#FFFFFF" d="M81.9,76.4c2.8-0.1,5.4,0.3,7.8,1.5c3.6,1.7,5.5,4.6,6.1,8.4c0.5,2.8,0.4,5.5-0.6,8.1c-1.3,3.7-4,6-7.8,6.9
		c-3.8,1-7.7,1-11.4-0.2c-4.1-1.3-6.8-4-7.7-8.3c-0.7-3.3-0.6-6.6,0.7-9.7c1.4-3.2,3.8-5,7.1-6C78.1,76.5,80.1,76.3,81.9,76.4z
		 M74.5,89.1c0,2.1,0.1,4.2,0.6,6.2c0.6,1.9,1.5,3.5,3.3,4.5c1.5,0.8,3,0.9,4.6,0.7c2.3-0.2,4.1-1.2,5.2-3.3
		c1.2-2.2,1.4-4.6,1.4-6.9c0-1.7-0.1-3.3-0.2-5c-0.1-1.4-0.5-2.8-1.1-4c-1.7-3.2-4.8-3.9-7.9-3.4c-2.9,0.5-4.5,2.4-5.3,5.1
		C74.6,85,74.4,87,74.5,89.1z"/>
	<path fill="#FFFFFF" d="M65.5,39c-10.1,0-20.1,0-30.2,0c0.7-0.9,1.4-1.8,2.1-2.7c1.4-1.8,2.8-3.7,4.3-5.5c0.8-1,1.6-0.9,2.3,0
		c1.7,2.3,3.5,4.6,5.2,6.9c0.8,1,1.6,1,2.4,0c1.8-2.3,3.5-4.6,5.3-6.9c0.7-0.9,1.5-0.9,2.3,0c2.1,2.6,4.1,5.2,6.1,7.9
		C65.4,38.7,65.4,38.8,65.5,39z"/>
	<path fill="#FFFFFF" d="M83.8,5.2c-2.2,0-4,1.8-4,4c0,2.2,1.8,4,4,4s4-1.8,4-4C87.8,7.1,86,5.2,83.8,5.2z M83.8,12.5
		c-1.8,0-3.2-1.4-3.2-3.2c0-1.8,1.4-3.2,3.2-3.2s3.2,1.4,3.2,3.2C86.9,11,85.5,12.5,83.8,12.5z"/>
	<g>
		<path fill="#FFFFFF" d="M82.1,11.7V7h2c0.5,0,0.9,0,1.1,0.1c0.2,0.1,0.4,0.2,0.5,0.4c0.1,0.2,0.2,0.5,0.2,0.7
			c0,0.4-0.1,0.6-0.3,0.9c-0.2,0.2-0.5,0.4-0.9,0.4c0.2,0.1,0.4,0.3,0.5,0.4c0.1,0.1,0.3,0.4,0.5,0.8l0.6,0.9h-1.1l-0.7-1
			c-0.2-0.4-0.4-0.6-0.5-0.7c-0.1-0.1-0.2-0.2-0.3-0.2c-0.1,0-0.3-0.1-0.5-0.1H83v2H82.1z M83,8.9h0.7c0.5,0,0.7,0,0.9-0.1
			c0.1,0,0.2-0.1,0.3-0.2c0.1-0.1,0.1-0.2,0.1-0.4c0-0.2,0-0.3-0.1-0.4c-0.1-0.1-0.2-0.2-0.4-0.2c-0.1,0-0.3,0-0.7,0H83V8.9z"/>
	</g>
</g>
</svg>
