<?xml version="1.0" encoding="utf-8"?>
<!-- Generator: Adobe Illustrator 17.1.0, SVG Export Plug-In . SVG Version: 6.00 Build 0)  -->
<!DOCTYPE svg PUBLIC "-//W3C//DTD SVG 1.1//EN" "http://www.w3.org/Graphics/SVG/1.1/DTD/svg11.dtd">
<svg version="1.1"
	 id="svg2985" xmlns:cc="http://creativecommons.org/ns#" xmlns:dc="http://purl.org/dc/elements/1.1/" xmlns:inkscape="http://www.inkscape.org/namespaces/inkscape" xmlns:rdf="http://www.w3.org/1999/02/22-rdf-syntax-ns#" xmlns:sodipodi="http://sodipodi.sourceforge.net/DTD/sodipodi-0.dtd" xmlns:svg="http://www.w3.org/2000/svg" sodipodi:docname="2016-Standards-of-Care.pdf" inkscape:version="0.48.5 r10040"
	 xmlns="http://www.w3.org/2000/svg" xmlns:xlink="http://www.w3.org/1999/xlink" x="0px" y="0px" viewBox="0 0 1000 281.1"
	 enable-background="new 0 0 1000 281.1" xml:space="preserve">
<sodipodi:namedview  guidetolerance="10" fit-margin-top="0.5" id="namedview2987" inkscape:cy="158.20546" pagecolor="#ffffff" borderopacity="1" showgrid="false" gridtolerance="10" inkscape:zoom="0.39041347" fit-margin-left="0.5" inkscape:cx="681.24592" objecttolerance="10" bordercolor="#666666" inkscape:current-layer="g2993" inkscape:window-maximized="0" inkscape:window-y="0" inkscape:window-x="857" fit-margin-right="0.5" fit-margin-bottom="0.5" inkscape:window-height="1026" inkscape:window-width="1057" inkscape:pageshadow="2" inkscape:pageopacity="0">
	</sodipodi:namedview>
<g opacity="0.29">
	<g id="g3125" transform="matrix(6.2688253,0,0,6.2688253,718.29717,52.9865)">
		<path id="path3127" inkscape:connector-curvature="0" fill="#FFFFFF" d="M-60.7,33.8V33h0.5c0.3,0,0.6,0.1,0.6,0.4
			c0,0.4-0.3,0.4-0.6,0.4H-60.7z M-60.7,34.2h0.5l0.7,1.1h0.4l-0.7-1.2c0.4,0,0.7-0.3,0.7-0.7c0-0.5-0.3-0.7-0.9-0.7h-1v2.6h0.4
			C-60.7,35.3-60.7,34.2-60.7,34.2z M-62.1,34c0-1.1,0.8-1.9,1.9-1.9c1,0,1.8,0.8,1.8,1.9c0,1.1-0.8,1.9-1.8,1.9
			C-61.3,35.9-62.1,35.1-62.1,34z M-60.2,36.3c1.2,0,2.3-1,2.3-2.3c0-1.3-1.1-2.3-2.3-2.3c-1.3,0-2.3,1-2.3,2.3
			C-62.5,35.3-61.5,36.3-60.2,36.3"/>
	</g>
	<g id="g3129" transform="matrix(6.2688253,0,0,6.2688253,549.49651,215.89446)">
		<path id="path3131" inkscape:connector-curvature="0" fill="#FFFFFF" d="M-67.4-24.7l19.9,34.8h11.1L-62-34.1L-67.4-24.7"/>
	</g>
	<g id="g3133" transform="matrix(6.2688253,0,0,6.2688253,521.44351,168.50214)">
		<path id="path3135" inkscape:connector-curvature="0" fill="#FFFFFF" d="M-68.6-7.6l-14.5,25.4h28.5l5.8-10.1h-17.5l8.7-15.3
			H-68.6"/>
	</g>
	<g id="g3137" transform="matrix(6.2688253,0,0,6.2688253,878.34654,233.07104)">
		<path id="path3139" inkscape:connector-curvature="0" fill="#FFFFFF" d="M-54.3-30.8c0-2.1-1.4-3.1-3.3-3.1c-1.5,0-2.2,1-2.5,1.5
			c-0.6-1-1.2-1.5-2.6-1.5c-1.7,0-2.3,1-2.7,1.6h0v-1.4h-2.4v9.4h2.5V-30c0-1,0.4-1.8,1.5-1.8c1.5,0,1.5,1.1,1.5,1.9v5.6h2.5V-30
			c0-1.1,0.4-1.9,1.7-1.9c0.7,0,1.3,0.5,1.3,1.8v5.7h2.5V-30.8"/>
	</g>
	<g id="g3141" transform="matrix(6.2688253,0,0,6.2688253,934.10148,200.61107)">
		<path id="path3143" inkscape:connector-curvature="0" fill="#FFFFFF" d="M-52.1-19.2h2.5V-24c0-1,0.4-2.2,2.3-2.2
			c0.2,0,0.5,0,0.7,0v-2.5c-0.2,0-0.3,0-0.5,0c-1.5,0-2.1,0.9-2.6,1.9h0v-1.6h-2.4V-19.2"/>
	</g>
	<g id="g3145" transform="matrix(6.2688253,0,0,6.2688253,978.95492,264.56562)">
		<path id="path3147" inkscape:connector-curvature="0" fill="#FFFFFF" d="M-50.3-42.1h-2.5v2.3h2.5V-42.1z M-50.3-38.7h-2.5v9.4
			h2.5C-50.3-29.4-50.3-38.7-50.3-38.7z"/>
	</g>
	<g id="g3149" transform="matrix(6.2688253,0,0,6.2688253,1016.3986,217.72496)">
		<path id="path3151" inkscape:connector-curvature="0" fill="#FFFFFF" d="M-48.8-25.3c0,0.4-0.4,1.6-1.7,1.6c-1.9,0-1.9-2-1.9-3
			c0-1.2,0.4-2.7,2-2.7c1.1-0.1,1.5,0.9,1.6,1.5h2.5c-0.2-2.9-2.7-3.6-4.1-3.6c-3.2,0-4.5,2.2-4.5,5.2c0,2,0.8,4.7,4.3,4.7
			c3.4,0,4.2-2.7,4.3-3.7H-48.8"/>
	</g>
	<g id="g3153" transform="matrix(6.2688253,0,0,6.2688253,1061.2521,217.46167)">
		<path id="path3155" inkscape:connector-curvature="0" fill="#FFFFFF" d="M-47-25.2c0,1.1-1.1,1.8-2.2,1.8c-0.5,0-1.1-0.3-1.1-1.1
			c0-1,0.8-1.2,1.7-1.4c1-0.2,1.4-0.3,1.7-0.5V-25.2z M-44.6-28.8c0-2.3-2.4-2.7-3.7-2.7c-1.9,0-3.9,0.4-4.2,3.3h2.4
			c0.1-0.5,0.3-1.3,1.5-1.3c0.6,0,1.6,0.1,1.6,1.1c0,0.5-0.5,0.7-0.9,0.7l-2.2,0.3c-1.6,0.2-2.7,1.2-2.7,3c0,1.9,1.4,2.7,2.8,2.7
			c1.7,0,2.5-0.8,3-1.4c0.1,0.5,0.1,0.7,0.2,1.1h2.7v-0.4c-0.3-0.1-0.5-0.4-0.5-1.5V-28.8"/>
	</g>
	<g id="g3157" transform="matrix(6.2688253,0,0,6.2688253,1124.5484,233.07104)">
		<path id="path3159" inkscape:connector-curvature="0" fill="#FFFFFF" d="M-44.5-30.8c0-2.1-1.4-3.1-3.3-3.1
			c-1.8,0-2.5,1.1-2.8,1.6h0v-1.4H-53v9.4h2.5v-5.4c0-1.4,0.8-2.2,1.9-2.2c1.6,0,1.6,1.2,1.6,1.8v5.7h2.5V-30.8"/>
	</g>
	<g id="g3161" transform="matrix(6.2688253,0,0,6.2688253,775.79483,249.65836)">
		<path id="path3163" inkscape:connector-curvature="0" fill="#FFFFFF" d="M-58.4-36.8L-58.4-36.8l1.6,5H-60L-58.4-36.8z
			 M-60.7-29.6h4.7l0.8,2.6h2.9l-4.5-12.6h-3L-64.4-27h2.8L-60.7-29.6"/>
	</g>
	<g id="g3165" transform="matrix(6.2688253,0,0,6.2688253,896.38822,228.75182)">
		<path id="path3167" inkscape:connector-curvature="0" fill="#FFFFFF" d="M-53.6-29.3c0.1-1.2,0.8-2,1.9-2c0.8,0,1.8,0.5,1.9,2
			H-53.6z M-49.9-26.4c-0.2,0.7-0.9,1-1.6,1c-2,0-2.1-1.6-2.2-2.3h6.4v-0.4c0-4.3-2.6-5.2-4.4-5.2c-4.1,0-4.5,3.6-4.5,4.7
			c0,3.9,2,5.1,4.7,5.1c1.6,0,3.5-0.7,4.1-3H-49.9"/>
	</g>
	<g id="g3171">
		<g id="g3177" transform="translate(573.779,42.613)">
			<path id="path3179" inkscape:connector-curvature="0" fill="#FFFFFF" d="M408.3,221.4v-5.1h3.4c1.7,0,3.6,0.4,3.6,2.4
				c0,2.5-1.9,2.7-4,2.7H408.3z M408.3,223.5h2.9l4.3,7.1h2.8l-4.7-7.2c2.4-0.3,4.3-1.6,4.3-4.5c0-3.2-1.9-4.7-5.8-4.7h-6.3v16.4
				h2.5C408.3,230.6,408.3,223.5,408.3,223.5z M399.7,222.4c0-6.7,5.1-11.8,11.6-11.8c6.4,0,11.5,5.1,11.5,11.8
				c0,6.9-5.1,11.9-11.5,11.9C404.8,234.3,399.7,229.2,399.7,222.4z M411.3,236.7c7.8,0,14.4-6,14.4-14.3c0-8.2-6.6-14.2-14.4-14.2
				c-7.8,0-14.5,6-14.5,14.2C396.9,230.6,403.5,236.7,411.3,236.7"/>
		</g>
	</g>
	<g id="g3181" transform="matrix(6.2688253,0,0,6.2688253,1215.7723,74.200205)">
		<path id="path3183" inkscape:connector-curvature="0" fill="#FFFFFF" d="M-40.9,26.2c0-2.1-1.4-3.1-3.3-3.1
			c-1.8,0-2.5,1.1-2.8,1.6h0v-1.4h-2.4v9.4h2.5v-5.4c0-1.4,0.8-2.2,1.9-2.2c1.6,0,1.6,1.2,1.6,1.8v5.7h2.5V26.2"/>
	</g>
	<g id="g3185" transform="matrix(6.2688253,0,0,6.2688253,775.79483,90.787517)">
		<path id="path3187" inkscape:connector-curvature="0" fill="#FFFFFF" d="M-58.4,20.2L-58.4,20.2l1.6,5H-60L-58.4,20.2z
			 M-60.7,27.4h4.7l0.8,2.6h2.9l-4.5-12.6h-3L-64.4,30h2.8L-60.7,27.4"/>
	</g>
	<g id="g3189" transform="matrix(6.2688253,0,0,6.2688253,849.85473,74.375732)">
		<path id="path3191" inkscape:connector-curvature="0" fill="#FFFFFF" d="M-55.5,26.1c-0.2-2.6-2.4-3.1-4.2-3.1
			c-2.9,0-3.8,1.8-3.8,3.1c0,3.5,5.8,2.3,5.8,3.9c0,0.4-0.3,1-1.6,1c-1.5,0-2-0.6-2-1.4h-2.5c0.1,2.5,2.4,3.2,4.5,3.2
			c1.5,0,4.1-0.5,4.1-3.2c0-3.4-5.9-2.4-5.9-3.9c0-0.4,0.2-0.9,1.5-0.9c1.3,0,1.5,0.6,1.7,1.2H-55.5"/>
	</g>
	<g id="g3193" transform="matrix(6.2688253,0,0,6.2688253,896.65151,74.375732)">
		<path id="path3195" inkscape:connector-curvature="0" fill="#FFFFFF" d="M-53.6,26.1c-0.2-2.6-2.4-3.1-4.2-3.1
			c-2.9,0-3.8,1.8-3.8,3.1c0,3.5,5.8,2.3,5.8,3.9c0,0.4-0.3,1-1.6,1c-1.5,0-2-0.6-2-1.4h-2.5c0.1,2.5,2.4,3.2,4.5,3.2
			c1.5,0,4.1-0.5,4.1-3.2c0-3.4-5.9-2.4-5.9-3.9c0-0.4,0.2-0.9,1.5-0.9s1.5,0.6,1.7,1.2H-53.6"/>
	</g>
	<g id="g3197" transform="matrix(6.2688253,0,0,6.2688253,937.36127,65.210709)">
		<path id="path3199" inkscape:connector-curvature="0" fill="#FFFFFF" d="M-52,29.4c0,1.2-0.4,2.8-2.3,2.8c-1.9,0-2.3-1.7-2.3-2.8
			c0-1.2,0.4-2.8,2.3-2.8C-52.3,26.6-52,28.2-52,29.4z M-49.4,29.4c0-3.4-2.3-4.9-4.8-4.9s-4.8,1.5-4.8,4.9c0,3.4,2.3,4.9,4.8,4.9
			C-51.7,34.4-49.4,32.8-49.4,29.4"/>
	</g>
	<g id="g3201" transform="matrix(6.2688253,0,0,6.2688253,984.33357,58.85412)">
		<path id="path3203" inkscape:connector-curvature="0" fill="#FFFFFF" d="M-50.1,31.7c0,0.4-0.4,1.6-1.7,1.6c-1.9,0-1.9-2-1.9-3
			c0-1.2,0.4-2.7,2-2.7c1.1-0.1,1.5,0.9,1.6,1.5h2.5c-0.2-2.9-2.7-3.6-4.1-3.6c-3.2,0-4.5,2.2-4.5,5.2c0,2,0.8,4.7,4.3,4.7
			c3.4,0,4.2-2.7,4.3-3.7H-50.1"/>
	</g>
	<g id="g3205" transform="matrix(6.2688253,0,0,6.2688253,1015.9535,105.69478)">
		<path id="path3207" inkscape:connector-curvature="0" fill="#FFFFFF" d="M-48.8,14.9h-2.5v2.3h2.5V14.9z M-48.8,18.3h-2.5v9.4h2.5
			C-48.8,27.7-48.8,18.3-48.8,18.3z"/>
	</g>
	<g id="g3209" transform="matrix(6.2688253,0,0,6.2688253,1051.4539,58.59083)">
		<path id="path3211" inkscape:connector-curvature="0" fill="#FFFFFF" d="M-47.4,31.8c0,1.1-1.1,1.8-2.2,1.8
			c-0.5,0-1.1-0.3-1.1-1.1c0-1,0.8-1.2,1.7-1.4c1-0.2,1.4-0.3,1.7-0.5V31.8z M-45,28.3c0-2.3-2.4-2.7-3.7-2.7
			c-1.9,0-3.9,0.4-4.2,3.3h2.4c0.1-0.5,0.3-1.3,1.5-1.3c0.6,0,1.6,0.1,1.6,1.1c0,0.5-0.5,0.7-0.9,0.7l-2.2,0.3
			c-1.6,0.2-2.7,1.2-2.7,3c0,1.9,1.4,2.7,2.8,2.7c1.7,0,2.5-0.8,3-1.4c0.1,0.5,0.1,0.7,0.2,1.1h2.7v-0.4c-0.3-0.1-0.5-0.4-0.5-1.5
			V28.3"/>
	</g>
	<g id="g3213" transform="matrix(6.2688253,0,0,6.2688253,1086.1706,101.37556)">
		<path id="path3215" inkscape:connector-curvature="0" fill="#FFFFFF" d="M-46,16.4h-2.5V19h-1.3v1.8h1.3v5.7c0,1.2,0.4,2,2.5,2
			h0.3c0.4,0,0.8,0,1.2,0v-1.9c-0.2,0-0.4,0-0.5,0c-1,0-1-0.2-1-0.8v-5.1h1.5V19H-46V16.4"/>
	</g>
	<g id="g3217" transform="matrix(6.2688253,0,0,6.2688253,1112.1361,105.69478)">
		<path id="path3219" inkscape:connector-curvature="0" fill="#FFFFFF" d="M-45,14.9h-2.5v2.3h2.5V14.9z M-45,18.3h-2.5v9.4h2.5
			C-45,27.7-45,18.3-45,18.3z"/>
	</g>
	<g id="g3221" transform="matrix(6.2688253,0,0,6.2688253,1154.2501,65.210709)">
		<path id="path3223" inkscape:connector-curvature="0" fill="#FFFFFF" d="M-43.3,29.4c0,1.2-0.4,2.8-2.3,2.8
			c-1.9,0-2.3-1.7-2.3-2.8c0-1.2,0.4-2.8,2.3-2.8C-43.7,26.6-43.3,28.2-43.3,29.4z M-40.8,29.4c0-3.4-2.3-4.9-4.8-4.9
			c-2.5,0-4.8,1.5-4.8,4.9c0,3.4,2.3,4.9,4.8,4.9C-43.1,34.4-40.8,32.8-40.8,29.4"/>
	</g>
	<g id="g3225" transform="matrix(6.2688253,0,0,6.2688253,765.35097,173.57362)">
		<path id="path3227" inkscape:connector-curvature="0" fill="#FFFFFF" d="M-58.8-9.5h2.5c1.1,0,2.9,0.3,2.9,4
			c0,2.1-0.7,4.2-2.9,4.2h-2.6V-9.5z M-61.4,1h5.5c4.2,0,5.2-3.9,5.2-6.6c0-2.4-0.9-6-5.1-6h-5.6V1"/>
	</g>
	<g id="g3229" transform="matrix(6.2688253,0,0,6.2688253,825.55677,185.13334)">
		<path id="path3231" inkscape:connector-curvature="0" fill="#FFFFFF" d="M-56.4-13.6h-2.5v2.3h2.5V-13.6z M-56.4-10.2h-2.5v9.4
			h2.5V-10.2z"/>
	</g>
	<g id="g3233" transform="matrix(6.2688253,0,0,6.2688253,893.91831,184.51272)">
		<path id="path3235" inkscape:connector-curvature="0" fill="#FFFFFF" d="M-53.7-13.4h-2.5v12.6h2.4v-1.2h0
			c0.6,1.1,1.7,1.4,2.7,1.4c2.8,0,3.9-2.5,3.9-5c0-3.2-1.8-4.8-3.9-4.8c-1.6,0-2.3,0.9-2.7,1.5l0,0V-13.4z M-49.6-5.4
			c0,1.1-0.4,2.8-2,2.8c-1.6,0-2.2-1.3-2.2-2.7c0-1.5,0.4-3,2.1-3C-50.1-8.2-49.6-6.8-49.6-5.4"/>
	</g>
	<g id="g3237" transform="matrix(6.2688253,0,0,6.2688253,994.21324,180.80785)">
		<path id="path3239" inkscape:connector-curvature="0" fill="#FFFFFF" d="M-49.7-12.1h-2.5v2.5h-1.3v1.8h1.3v5.7c0,1.2,0.4,2,2.5,2
			h0.3c0.4,0,0.8,0,1.2,0V-2c-0.2,0-0.4,0-0.5,0c-1,0-1-0.2-1-0.8v-5.1h1.5v-1.8h-1.5V-12.1"/>
	</g>
	<g id="g3241" transform="matrix(6.2688253,0,0,6.2688253,1016.4738,149.31954)">
		<path id="path3243" inkscape:connector-curvature="0" fill="#FFFFFF" d="M-48.8-0.8c0.1-1.2,0.8-2,1.9-2c0.8,0,1.8,0.5,1.9,2
			H-48.8z M-45.1,2.1c-0.2,0.7-0.9,1-1.6,1c-2,0-2.1-1.6-2.2-2.3h6.4V0.4c0-4.3-2.5-5.2-4.4-5.2c-4.1,0-4.5,3.6-4.5,4.7
			c0,3.9,2,5.1,4.7,5.1c1.6,0,3.5-0.7,4.1-3H-45.1"/>
	</g>
	<g id="g3245" transform="matrix(6.2688253,0,0,6.2688253,861.06339,138.02312)">
		<path id="path3247" inkscape:connector-curvature="0" fill="#FFFFFF" d="M-55,3.3c0,1.1-1.1,1.8-2.2,1.8c-0.5,0-1.1-0.3-1.1-1.1
			c0-1,0.8-1.2,1.7-1.4c1-0.2,1.4-0.3,1.7-0.5V3.3z M-52.6-0.2c0-2.3-2.4-2.7-3.7-2.7c-1.9,0-3.9,0.4-4.2,3.3h2.4
			c0.1-0.5,0.3-1.3,1.5-1.3C-56-1-55-0.9-55,0.1c0,0.5-0.5,0.7-0.9,0.7l-2.2,0.3c-1.6,0.2-2.7,1.2-2.7,3c0,1.9,1.4,2.7,2.8,2.7
			c1.7,0,2.5-0.8,3-1.4c0.1,0.5,0.1,0.7,0.2,1.1h2.7V6.3c-0.3-0.1-0.5-0.4-0.5-1.5V-0.2"/>
	</g>
	<g id="g3249" transform="matrix(6.2688253,0,0,6.2688253,942.56439,149.31954)">
		<path id="path3251" inkscape:connector-curvature="0" fill="#FFFFFF" d="M-51.8-0.8c0.1-1.2,0.8-2,1.9-2c0.8,0,1.8,0.5,1.9,2
			H-51.8z M-48.1,2.1c-0.2,0.7-0.9,1-1.6,1c-2,0-2.1-1.6-2.2-2.3h6.4V0.4c0-4.3-2.6-5.2-4.4-5.2c-4.1,0-4.5,3.6-4.5,4.7
			c0,3.9,2,5.1,4.7,5.1c1.6,0,3.5-0.7,4.1-3H-48.1"/>
	</g>
	<g id="g3253" transform="matrix(6.2688253,0,0,6.2688253,1092.9159,153.81429)">
		<path id="path3255" inkscape:connector-curvature="0" fill="#FFFFFF" d="M-45.8-2.4C-46-5-48.1-5.5-50-5.5c-2.9,0-3.8,1.8-3.8,3.1
			c0,3.5,5.8,2.3,5.8,3.9c0,0.4-0.3,1-1.6,1c-1.5,0-2-0.6-2-1.4h-2.5c0.1,2.5,2.4,3.2,4.5,3.2c1.5,0,4.1-0.5,4.1-3.2
			c0-3.4-5.9-2.4-5.9-3.9c0-0.4,0.2-0.9,1.5-0.9c1.3,0,1.5,0.6,1.7,1.2L-45.8-2.4"/>
	</g>
</g>
</svg>
