<svg xmlns="http://www.w3.org/2000/svg" viewBox="0 0 122.55516 23.808"><defs><style>.cls-1{fill:#fff;}</style></defs><title>logo-concordia</title><path class="cls-1" d="M6.37335,12.34569a5.54521,5.54521,0,0,1-4.179-1.59888A6.19307,6.19307,0,0,1,.64668,6.25062,6.27529,6.27529,0,0,1,2.19733,1.79286,5.44812,5.44812,0,0,1,6.38123.13191a9.09156,9.09156,0,0,1,1.256.07881,8.50958,8.50958,0,0,1,1.0689.22067A7.7315,7.7315,0,0,1,9.577.75452c.31525.13792.56845.25614.76249.35662V3.91288H10.042q-.21132-.18767-.532-.45021a6.85456,6.85456,0,0,0-.728-.51424,4.905,4.905,0,0,0-.89741-.42755,2.99441,2.99441,0,0,0-1.02164-.17634,3.24748,3.24748,0,0,0-1.16246.201,2.77436,2.77436,0,0,0-1.00583.6965,3.3424,3.3424,0,0,0-.71619,1.21271A5.2789,5.2789,0,0,0,3.70065,6.2585a5.0881,5.0881,0,0,0,.28862,1.83827,3.32256,3.32256,0,0,0,.76056,1.20089A2.76472,2.76472,0,0,0,5.76251,9.936a3.35962,3.35962,0,0,0,1.11616.197A3.20944,3.20944,0,0,0,7.983,9.94293a4.33745,4.33745,0,0,0,.88467-.42263,5.67013,5.67013,0,0,0,.68859-.48764c.198-.16452.37045-.31032.51722-.44134h.26595v2.74953c-.21472.0995-.463.21377-.74673.34086a6.51553,6.51553,0,0,1-.87084.32608,9.2427,9.2427,0,0,1-1.02946.25121,7.77819,7.77819,0,0,1-1.31909.08669" transform="translate(-0.64668)"/><path class="cls-1" d="M22.79173,6.27092a6.34965,6.34965,0,0,1-1.522,4.49421,5.4154,5.4154,0,0,1-4.16911,1.63632,5.36335,5.36335,0,0,1-4.17013-1.657,6.3743,6.3743,0,0,1-1.51319-4.47352,6.37887,6.37887,0,0,1,1.51319-4.48929A5.37534,5.37534,0,0,1,17.10059.1325,5.40748,5.40748,0,0,1,21.2697,1.77276a6.3648,6.3648,0,0,1,1.522,4.49816M19.73781,6.264a6.53355,6.53355,0,0,0-.2158-1.79689,3.70374,3.70374,0,0,0-.57729-1.21763,2.23658,2.23658,0,0,0-.85112-.69453,2.49464,2.49464,0,0,0-1.96637-.01576,2.36131,2.36131,0,0,0-.84817.69354,3.63685,3.63685,0,0,0-.58421,1.22158,6.47053,6.47053,0,0,0-.22464,1.8166A6.45418,6.45418,0,0,0,14.683,8.07471a3.63912,3.63912,0,0,0,.58126,1.20286,2.17893,2.17893,0,0,0,.856.70043,2.41128,2.41128,0,0,0,.98815.21082,2.3633,2.3633,0,0,0,1.0048-.2256,2.18865,2.18865,0,0,0,.83933-.7024,3.90072,3.90072,0,0,0,.58126-1.20089,6.47418,6.47418,0,0,0,.204-1.79591" transform="translate(-0.64668)"/><polygon class="cls-1" points="33.925 12.122 31.094 12.122 26.557 3.939 26.557 12.122 23.869 12.122 23.869 0.384 27.482 0.384 31.235 7.108 31.235 0.384 33.925 0.384 33.925 12.122"/><path class="cls-1" d="M42.00215,12.34569a5.54521,5.54521,0,0,1-4.179-1.59888,6.19307,6.19307,0,0,1-1.5477-4.49618,6.27579,6.27579,0,0,1,1.55161-4.45776A5.44456,5.44456,0,0,1,42.01.13191a9.08159,9.08159,0,0,1,1.256.07881,8.47419,8.47419,0,0,1,1.0689.22067,7.66314,7.66314,0,0,1,.87084.32313c.31429.13792.56845.25614.76249.35662V3.91288h-.29649q-.21276-.18767-.533-.45021a6.94289,6.94289,0,0,0-.727-.51424,4.94731,4.94731,0,0,0-.89844-.42755,2.98885,2.98885,0,0,0-1.02062-.17634,3.23953,3.23953,0,0,0-1.16246.201,2.77386,2.77386,0,0,0-1.00583.6965,3.34359,3.34359,0,0,0-.71721,1.21271,5.2789,5.2789,0,0,0-.27779,1.80379,5.10906,5.10906,0,0,0,.28862,1.83827,3.33542,3.33542,0,0,0,.76056,1.20089,2.76013,2.76013,0,0,0,1.0137.63837,3.3493,3.3493,0,0,0,1.11514.197,3.20523,3.20523,0,0,0,1.10438-.19013,4.36219,4.36219,0,0,0,.88467-.42263,5.74664,5.74664,0,0,0,.68859-.48764c.199-.16452.37045-.31032.51722-.44134h.26595v2.74953c-.21472.0995-.462.21377-.74571.34086a6.582,6.582,0,0,1-.87186.32608,9.281,9.281,0,0,1-1.02849.25121,7.78307,7.78307,0,0,1-1.32006.08669" transform="translate(-0.64668)"/><path class="cls-1" d="M58.42053,6.27092a6.3453,6.3453,0,0,1-1.522,4.49421,5.414,5.414,0,0,1-4.16911,1.63632,5.36335,5.36335,0,0,1-4.17013-1.657,6.379,6.379,0,0,1-1.51319-4.47352,6.38357,6.38357,0,0,1,1.51319-4.48929A5.37534,5.37534,0,0,1,52.72939.1325,5.40607,5.40607,0,0,1,56.8985,1.77276a6.36044,6.36044,0,0,1,1.522,4.49816M55.36662,6.264a6.49677,6.49677,0,0,0-.2158-1.79689,3.68466,3.68466,0,0,0-.57729-1.21763,2.23658,2.23658,0,0,0-.85112-.69453A2.49464,2.49464,0,0,0,51.756,2.5392a2.35894,2.35894,0,0,0-.84721.69354,3.63874,3.63874,0,0,0-.58619,1.22158A6.55218,6.55218,0,0,0,50.1,6.27092a6.45193,6.45193,0,0,0,.21279,1.80379,3.65719,3.65719,0,0,0,.57922,1.20286,2.1972,2.1972,0,0,0,.85514.70043,2.42676,2.42676,0,0,0,.99007.21082,2.3633,2.3633,0,0,0,1.0048-.2256,2.19569,2.19569,0,0,0,.83933-.7024,3.87916,3.87916,0,0,0,.58126-1.20089,6.511,6.511,0,0,0,.204-1.79591" transform="translate(-0.64668)"/><path class="cls-1" d="M70.98571,12.12157H67.382L64.11828,7.80764H63.08582v4.31393H60.1432V.3846H64.863a10.46454,10.46454,0,0,1,1.70235.12117,3.629,3.629,0,0,1,1.34074.50833,3.07984,3.07984,0,0,1,1.001,1.01864,3.026,3.026,0,0,1,.37039,1.5713,3.64373,3.64373,0,0,1-.6088,2.186,4.27588,4.27588,0,0,1-1.62749,1.33388ZM66.22355,3.95179a1.55764,1.55764,0,0,0-.16848-.74772,1.095,1.095,0,0,0-.55661-.48469,1.99421,1.99421,0,0,0-.60687-.14777q-.33543-.031-.83344-.03054h-.97233V5.65018h.83151a6.24709,6.24709,0,0,0,1.0324-.0729,1.54262,1.54262,0,0,0,.72016-.31328,1.37308,1.37308,0,0,0,.41669-.52114,1.92643,1.92643,0,0,0,.137-.79107" transform="translate(-0.64668)"/><path class="cls-1" d="M82.33786,6.26461a5.9767,5.9767,0,0,1-.71817,2.93769,5.33911,5.33911,0,0,1-1.8107,1.989,5.07708,5.07708,0,0,1-1.989.76152,14.797,14.797,0,0,1-2.28752.16945H71.85889V.38431H75.5a15.97339,15.97339,0,0,1,2.31506.15762,5.05672,5.05672,0,0,1,2.02542.76447A5.27316,5.27316,0,0,1,81.668,3.30426a6.20229,6.20229,0,0,1,.66989,2.96035m-3.05391-.0197a4.49636,4.49636,0,0,0-.39606-1.97225A2.88112,2.88112,0,0,0,77.66926,2.989a2.822,2.822,0,0,0-1.25013-.36056q-.65462-.031-1.56345-.03153H74.8015v7.3127h.05418c.65907,0,1.21471-.01281,1.66591-.03546a2.65906,2.65906,0,0,0,1.28855-.42066A2.90293,2.90293,0,0,0,78.9076,8.19844a4.54629,4.54629,0,0,0,.37634-1.95354" transform="translate(-0.64668)"/><polygon class="cls-1" points="89.261 12.122 82.958 12.122 82.958 10.077 84.638 10.077 84.638 2.429 82.958 2.429 82.958 0.384 89.261 0.384 89.261 2.429 87.58 2.429 87.58 10.077 89.261 10.077 89.261 12.122"/><path class="cls-1" d="M90.619,12.12187,94.58718.38391h3.21746l3.96516,11.738H98.75334l-.73-2.38109H94.27782l-.731,2.38109Zm6.7512-4.53855L96.15057,3.65163,94.93,7.58332Z" transform="translate(-0.64668)"/><path class="cls-1" d="M7.82455,17.2909a3.669,3.669,0,0,1-.20588,1.23241,2.60739,2.60739,0,0,1-.5901.97627,4.15043,4.15043,0,0,1-.52017.44824,3.14937,3.14937,0,0,1-.62557.34874,4.038,4.038,0,0,1-.74276.22362,4.56888,4.56888,0,0,1-.90042.0798H3.02v3.02635H.69508V14.367H4.29087a5.73811,5.73811,0,0,1,1.38409.14678,3.34566,3.34566,0,0,1,1.05411.463,2.3334,2.3334,0,0,1,.80981.93,3.1022,3.1022,0,0,1,.28567,1.38412m-2.39485.05517a1.21924,1.21924,0,0,0-.18622-.67778.99213.99213,0,0,0-.44723-.39012,1.89482,1.89482,0,0,0-.6305-.16649c-.202-.01478-.47285-.02167-.8157-.02167H3.02v2.787h.16156c.22067,0,.42655-.001.62064-.00591a3.631,3.631,0,0,0,.50935-.04236,1.80989,1.80989,0,0,0,.394-.12216,1.04273,1.04273,0,0,0,.32018-.20294,1.25983,1.25983,0,0,0,.32018-.48174,2.221,2.221,0,0,0,.08376-.67581" transform="translate(-0.64668)"/><polygon class="cls-1" points="14.592 23.626 8.414 23.626 8.414 14.367 10.74 14.367 10.74 21.862 14.592 21.862 14.592 23.626"/><path class="cls-1" d="M15.35122,23.62624,18.481,14.3669h2.53771l3.12883,9.25934H21.76648l-.57434-1.87571H18.26233L17.687,23.62624Zm5.3267-3.57212-.95069-3.06674-.95069,3.06674Z" transform="translate(-0.64668)"/><polygon class="cls-1" points="32.342 23.626 30.102 23.626 26.543 17.171 26.543 23.626 24.413 23.626 24.413 14.367 27.268 14.367 30.213 19.672 30.213 14.367 32.342 14.367 32.342 23.626"/><path class="cls-1" d="M41.46437,23.7946a7.64409,7.64409,0,0,1-1.87275-.20491,9.5513,9.5513,0,0,1-1.49846-.50932V20.88056H38.306a5.21865,5.21865,0,0,0,1.53784.90337,4.62464,4.62464,0,0,0,1.63236.31524,4.08221,4.08221,0,0,0,.52606-.04335,1.83458,1.83458,0,0,0,.52708-.13595,1.13929,1.13929,0,0,0,.4108-.29456.72612.72612,0,0,0,.16842-.49947.68614.68614,0,0,0-.27485-.56448,1.74417,1.74417,0,0,0-.65311-.3182q-.47441-.12413-1.01274-.23545a8.0971,8.0971,0,0,1-1.00583-.27387,3.12951,3.12951,0,0,1-1.54469-1.01962,2.64324,2.64324,0,0,1-.468-1.60381,2.49219,2.49219,0,0,1,1.10335-2.10524,4.55512,4.55512,0,0,1,2.75544-.80683,8.16873,8.16873,0,0,1,1.64914.16846,7.26657,7.26657,0,0,1,1.46785.45317v2.11017h-.20486a4.68625,4.68625,0,0,0-1.263-.7359,4.05913,4.05913,0,0,0-1.53086-.30047,3.05377,3.05377,0,0,0-.54681.04335,2.11389,2.11389,0,0,0-.51127.16649,1.01772,1.01772,0,0,0-.37827.29259.66719.66719,0,0,0-.15862.43346.68809.68809,0,0,0,.25122.56252,2.5429,2.5429,0,0,0,.97528.37632c.31231.07093.61277.13989.90042.20491a8.59743,8.59743,0,0,1,.925.27387,3.1516,3.1516,0,0,1,1.43538.93687,2.406,2.406,0,0,1,.47092,1.55061,2.66587,2.66587,0,0,1-1.0876,2.22051,4.69148,4.69148,0,0,1-2.93769.83934" transform="translate(-0.64668)"/><polygon class="cls-1" points="46.013 23.626 46.013 14.367 52.274 14.367 52.274 16.132 48.338 16.132 48.338 17.758 51.967 17.758 51.967 19.522 48.338 19.522 48.338 21.862 52.274 21.862 52.274 23.626 46.013 23.626"/><path class="cls-1" d="M63.06327,23.62585H60.22113L57.643,20.237h-.82652v3.38889H54.49157V14.36749h3.72777A8.23577,8.23577,0,0,1,59.564,14.464a2.89225,2.89225,0,0,1,1.059.401,2.43968,2.43968,0,0,1,.79008.80585,2.39073,2.39073,0,0,1,.29162,1.24226,2.87351,2.87351,0,0,1-.4788,1.727,3.35819,3.35819,0,0,1-1.28169,1.05509Zm-3.75236-6.42509a1.28514,1.28514,0,0,0-.134-.60389.8753.8753,0,0,0-.44333-.39012,1.55,1.55,0,0,0-.48169-.1192c-.17636-.01773-.398-.02463-.661-.02463h-.77433V18.5701h.663a4.94505,4.94505,0,0,0,.81961-.05911,1.20948,1.20948,0,0,0,.5714-.25417,1.08766,1.08766,0,0,0,.331-.4177,1.58226,1.58226,0,0,0,.10937-.63837" transform="translate(-0.64668)"/><polygon class="cls-1" points="70.82 14.367 67.639 23.626 65.217 23.626 62.037 14.367 64.452 14.367 66.457 20.63 68.464 14.367 70.82 14.367"/><polygon class="cls-1" points="76.299 23.626 71.313 23.626 71.313 22.015 72.643 22.015 72.643 15.978 71.313 15.978 71.313 14.367 76.299 14.367 76.299 15.978 74.968 15.978 74.968 22.015 76.299 22.015 76.299 23.626"/><path class="cls-1" d="M82.4803,23.808a4.39463,4.39463,0,0,1-3.30814-1.261,4.86994,4.86994,0,0,1-1.22746-3.54749,4.943,4.943,0,0,1,1.22842-3.517,4.32427,4.32427,0,0,1,3.312-1.31122,7.21187,7.21187,0,0,1,.996.06206,6.47505,6.47505,0,0,1,.84522.17535,5.96438,5.96438,0,0,1,.69159.25417c.24821.10935.44922.202.60291.28077v2.21066h-.23546c-.1143-.09852-.25416-.21673-.4236-.35367a5.19128,5.19128,0,0,0-.58024-.40292,3.81018,3.81018,0,0,0-.71324-.33692,2.39262,2.39262,0,0,0-.81275-.1389,2.60676,2.60676,0,0,0-.92405.15861,2.22191,2.22191,0,0,0-.799.54872,2.60477,2.60477,0,0,0-.56941.95559,4.08873,4.08873,0,0,0-.22265,1.42057,3.96044,3.96044,0,0,0,.23155,1.44914,2.60083,2.60083,0,0,0,.60291.94475,2.17406,2.17406,0,0,0,.80584.50341,2.70657,2.70657,0,0,0,.88761.15368,2.56137,2.56137,0,0,0,.87871-.14974,3.53782,3.53782,0,0,0,.7044-.333,4.80371,4.80371,0,0,0,.54675-.38618q.23793-.19506.40983-.34874h.21279V23.013c-.16848.07881-.36648.16945-.5901.27092a5.95152,5.95152,0,0,1-.69159.25811,7.64366,7.64366,0,0,1-.81372.199,6.25315,6.25315,0,0,1-1.04521.067" transform="translate(-0.64668)"/><polygon class="cls-1" points="86.327 23.626 86.327 14.367 92.59 14.367 92.59 16.132 88.652 16.132 88.652 17.758 92.282 17.758 92.282 19.522 88.652 19.522 88.652 21.862 92.59 21.862 92.59 23.626 86.327 23.626"/><path class="cls-1" d="M97.67368,23.7946a7.63827,7.63827,0,0,1-1.87275-.20491,9.482,9.482,0,0,1-1.49846-.50932V20.88056h.21183a5.22264,5.22264,0,0,0,1.5388.90337,4.61935,4.61935,0,0,0,1.6314.31524,4.05646,4.05646,0,0,0,.52606-.04335,1.80918,1.80918,0,0,0,.52606-.13595,1.14238,1.14238,0,0,0,.41176-.29456.72077.72077,0,0,0,.16752-.49947.68717.68717,0,0,0-.27292-.56448,1.75134,1.75134,0,0,0-.65311-.3182c-.31724-.08275-.65317-.16058-1.0137-.23545a8.05243,8.05243,0,0,1-1.00589-.27387,3.12163,3.12163,0,0,1-1.54367-1.01962,2.64324,2.64324,0,0,1-.468-1.60381A2.49127,2.49127,0,0,1,95.461,15.00518a4.55487,4.55487,0,0,1,2.75544-.80683,8.16873,8.16873,0,0,1,1.64914.16846,7.33564,7.33564,0,0,1,1.46881.45317v2.11017h-.20588a4.71672,4.71672,0,0,0-1.26293-.7359,4.062,4.062,0,0,0-1.5299-.30047,3.08374,3.08374,0,0,0-.54873.04335,2.09252,2.09252,0,0,0-.51031.16649,1.02232,1.02232,0,0,0-.3773.29259.65779.65779,0,0,0-.15964.43346.691.691,0,0,0,.25122.56252,2.55061,2.55061,0,0,0,.97534.37632c.31225.07093.61078.13989.90042.20491a8.61444,8.61444,0,0,1,.926.27387,3.14814,3.14814,0,0,1,1.43442.93687,2.40041,2.40041,0,0,1,.47086,1.55061,2.67016,2.67016,0,0,1-1.08658,2.22051,4.69527,4.69527,0,0,1-2.93768.83934" transform="translate(-0.64668)"/><path class="cls-1" d="M112.67441,10.96521l.20684-.48567s1.51223-1.69543,1.30923-1.3457c-.29451.51227-.21574.6561-.21574.6561l.05424,12.53592-1.29354.70832Z" transform="translate(-0.64668)"/><path class="cls-1" d="M111.901,10.51411l.61271-.12019a10.62549,10.62549,0,0,0,1.35758-1.34866c.07582-.18028-.19806.17535-.68372.17535-.3921,0-7.091.01675-7.091.01675l-.86693,1.27576Z" transform="translate(-0.64668)"/><polygon class="cls-1" points="115.718 9.171 115.701 10.409 120.168 10.391 120.994 9.118 115.718 9.171"/><polygon class="cls-1" points="111.827 2.405 113.118 1.526 113.136 6.854 111.898 6.854 111.827 2.405"/><path class="cls-1" d="M114.26276,9.045s1.81659-2.12889,2.387-2.15352c.1793-.00788.08767.03743-.03746.15565a1.71383,1.71383,0,0,0-.42066.63443c-.22656.54183.21772,12.14876-.08075,12.96052-.25025.68073-1.79393,1.57819-1.79393,1.57819Z" transform="translate(-0.64668)"/><path class="cls-1" d="M114.26306,9.04517s1.81659-2.12889,2.387-2.15253c.17828-.00887.0867.03645-.03746.15466a1.71383,1.71383,0,0,0-.42066.63443c-.22753.54183.21772,12.14876-.08075,12.95953-.25122.68172-1.79393,1.57918-1.79393,1.57918Z" transform="translate(-0.64668)"/><path class="cls-1" d="M113.928,8.90311s2.65791-2.10919,2.21951-2.59388c-.41675.61966-.51031.69256-1.71612.71226-4.02823.10541-5.58279-.13693-6.66052.16945-.85514.30047-1.4925,1.75158-1.4925,1.75158Z" transform="translate(-0.64668)"/><path class="cls-1" d="M113.92779,8.90291s2.65689-2.1082,2.21951-2.59388c-.41675.62064-.51031.69256-1.71612.71226-4.02727.10541-5.58279-.13595-6.66052.16945-.85514.30047-1.4925,1.75158-1.4925,1.75158Z" transform="translate(-0.64668)"/><path class="cls-1" d="M116.365,8.938s-.18526-1.66883.87282-1.92c1.31019-.07192,5.964,0,5.964,0L121.7833,8.92026Z" transform="translate(-0.64668)"/><path class="cls-1" d="M116.36526,8.93769s-.18526-1.66784.87282-1.91905c1.31019-.07192,5.963,0,5.963,0L121.78354,8.92Z" transform="translate(-0.64668)"/><path class="cls-1" d="M114.04708,1.31024,115.91388,0l.05225,5.76012A1.00813,1.00813,0,0,1,114.89819,6.831c-.32313.00591-.83344.00591-.83344.00591Z" transform="translate(-0.64668)"/><path class="cls-1" d="M114.04738,1.31063l1.8668-1.31024.05123,5.75913a1.00883,1.00883,0,0,1-1.06692,1.07183c-.32313.00493-.83344.00493-.83344.00493Z" transform="translate(-0.64668)"/><path class="cls-1" d="M111.69667,11.56595l.93391-.89746a.822.822,0,0,0-.21676.42952,1.44759,1.44759,0,0,0,0,.25417l-.002,11.869-.68167.44134Z" transform="translate(-0.64668)"/><path class="cls-1" d="M111.2697,11.56053a7.40535,7.40535,0,0,0,1.17623-1.02159s-.199.07487-.40587.13693a2.54527,2.54527,0,0,1-.56551.05517c-.48566.01675-6.35116-.04039-6.35116-.04039l-.65119.92111s6.51081.05517,6.7975-.05123" transform="translate(-0.64668)"/><path class="cls-1" d="M116.33754,10.6147l.01768.861s3.1239.0266,3.46381-.03546c.24135-.04433.77132-.82555.77132-.82555Z" transform="translate(-0.64668)"/><path class="cls-1" d="M111.62806,3.41706a1.03887,1.03887,0,0,1,.64127-.75462V6.86111h-.69743a23.72359,23.72359,0,0,1,.05616-3.44405" transform="translate(-0.64668)"/></svg>