<?xml version="1.0" encoding="utf-8"?>
<!-- Generator: Adobe Illustrator 17.1.0, SVG Export Plug-In . SVG Version: 6.00 Build 0)  -->
<!DOCTYPE svg PUBLIC "-//W3C//DTD SVG 1.1//EN" "http://www.w3.org/Graphics/SVG/1.1/DTD/svg11.dtd">
<svg version="1.1" id="Layer_1" xmlns="http://www.w3.org/2000/svg" xmlns:xlink="http://www.w3.org/1999/xlink" x="0px" y="0px"
	 viewBox="0 19.7 2172.9 2032.3" enable-background="new 0 19.7 2172.9 2032.3" xml:space="preserve">
<g opacity="0.31">
	<path fill="#FFFFFF" d="M511.8,335.4L511.8,335.4c-46.2,13.4-87.5,40-118.8,76.6h128.7c2.3-0.7,3.6-3.4,1-6
		C509,391.1,497.2,359.7,511.8,335.4z"/>
	<path fill="#FFFFFF" d="M993.3,981.1c-32,0-58,25.9-58.1,57.9c0,32.1,26.1,58.1,58.1,58.1c32-0.1,57.8-26,57.9-57.9
		C1051.3,1007.1,1025.4,981.1,993.3,981.1z M1042.1,1039.1c0,28.5-20.4,48.9-48.6,48.9c-28.5,0-48.9-20.4-48.9-48.9
		c0-28.3,20.5-48.6,48.9-48.6c1.1,0,2.3,0,3.4,0C1022.8,991.4,1043,1013.2,1042.1,1039.1z"/>
	<path fill="#FFFFFF" d="M486.2,527l-145.3-13.4c-4.6,18.8-7,38.4-7,58.5c-0.1,58.9,21,115.9,59.4,160.6l101.7-194.4
		C497.5,532.3,496.7,527.8,486.2,527z"/>
	<path fill="#FFFFFF" d="M767.1,732.7c37-43.1,59.4-99.2,59.4-160.6c0-20.2-2.4-39.7-6.9-58.5L674.2,527
		c-10.5,0.8-11.3,5.3-8.9,11.3L767.1,732.7z"/>
	<path fill="#FFFFFF" d="M2038.2,1023.9c0-11.9-5.8-18.3-23.1-18.3h-28.5v66.4h8.4v-29.5h14.3l18.7,29.5h9.5l-19.7-29.5
		C2029.4,1041.5,2038.2,1036.7,2038.2,1023.9z M2006.8,1034.7L2006.8,1034.7l-11.8,0.1v-21.5h18.2c8,0,15.8,1.2,15.8,10.5
		C2029,1036.3,2016.1,1034.7,2006.8,1034.7z"/>
	<path fill="#FFFFFF" d="M2008.2,981.1c-32,0-58,25.9-58.1,57.9c0,32.1,26,58,58.1,58.1c32,0,57.9-26,57.9-57.9
		C2066.2,1007.1,2040.3,981.1,2008.2,981.1z M2008.3,1087.9c-28.4,0-48.8-20.4-48.8-48.9c0-1.2,0-2.3,0-3.5
		c1-25.9,22.9-46.1,48.8-45.1c1.2,0,2.3,0,3.5,0c25.9,0.9,46.1,22.7,45.2,48.6c0,1.2,0,2.3,0,3.5
		C2056.1,1068.5,2034.3,1088.8,2008.3,1087.9z"/>
	<path fill="#FFFFFF" d="M580.2,647.8c-1.5,0-2.9,0.7-4,2.3h0l-96.3,147.2c31.6,14.1,65.7,21.3,100.3,21.3
		c34.5,0,68.7-7.2,100.3-21.3L584.2,650C583.1,648.5,581.6,647.7,580.2,647.8z"/>
	<path fill="#FFFFFF" d="M648.7,335.4L648.7,335.4c14.5,24.2,2.7,55.7-11,70.5c-2.6,2.7-1.3,5.4,1,6.1h128.7
		C736.2,375.5,694.9,348.8,648.7,335.4z"/>
	<path fill="#FFFFFF" d="M810.1,50.2H348.6v289.6H59v463.1h289.6v289.6h461.5V802.9h289.6V339.8H810.1V50.2z M294.1,572.2
		c0-35.5,6.5-69.5,18.3-100.9v0.1l192,18.5c36,5,40.3,39.9,30.6,60.9l-131.5,247l0.1-0.4C334.4,743.1,294,660.1,294.1,572.2z
		 M737.5,811.3l-0.1-0.1c-45.2,29.8-99.1,47.1-157.2,47.1c-58.1,0-112.1-17.3-157.3-47.1l-0.1,0.1v-0.2c0,0,0.1,0,0.1,0.1
		l139.4-208.3c10.3-14.5,25.9-13.4,35.7,0l139.4,208.3c0,0,0.1,0,0.1-0.1V811.3z M848,471.4L848,471.4
		c11.7,31.3,18.2,65.3,18.2,100.7c0.1,87.9-40.3,171-109.5,225.2l0.2,0.4L625.4,550.8c-9.7-21-5.4-55.9,30.6-60.9L848,471.4
		c0,0,0-0.1-0.1-0.1L848,471.4z M839.5,451.1H635.8c-29-0.6-41.8-17.6-42.4-31.4c-0.7-16.4,1.9-21.6,15.4-39.1
		c14.8-19.6,4.6-57.4-28.7-58.1c-33.2,0.6-43.5,38.4-28.7,58.1c13.5,17.5,16.1,22.7,15.4,39.1c-0.6,13.9-13.4,30.9-42.4,31.5H320.9
		c47-100.7,148.1-165.1,259.3-165l0-0.1C691.4,286,792.5,350.4,839.5,451.1z"/>
	<path fill="#FFFFFF" d="M1023.3,1023.9c0-11.9-5.8-18.3-23.1-18.3h-28.5v66.4h8.5v-29.5h14.2l18.7,29.5h9.5l-19.7-29.5
		C1014.5,1041.5,1023.3,1036.7,1023.3,1023.9z M991.9,1034.7L991.9,1034.7l-11.7,0.1v-21.5h18.1c8,0,15.8,1.2,15.8,10.5
		C1014.1,1036.3,1001.2,1034.7,991.9,1034.7z"/>
	<path fill="#FFFFFF" d="M580.2,286.1C580.2,286.1,580.2,286.1,580.2,286.1l-0.8,36.4c0.3,0,0.5,0,0.8,0c0.3,0,0.5,0,0.8,0
		L580.2,286.1z"/>
</g>
<g opacity="0.31">
	<path fill="#FFFFFF" d="M1621.4,325c5.6,3.9,4.4,11,12.5,9.7c4.1-0.6,6.6-3.2,10.3-5.9c2-0.2,4,0.1,5.8,0.8h0
		c-8.8-9.1-26.5-9.1-38.3-9.5C1614.7,325.6,1617.9,322.6,1621.4,325z"/>
	<path fill="#FFFFFF" d="M1819.1,231.9c-48.1,6.5-95.7,11.1-142.6,11.5h-0.4c-47.7-0.8-95.3-4.7-142.5-11.5
		c-48.2-6.5-94.7-17.5-144.5-30.8c-34.9,98.9-27.4,223.6-0.6,334.5c50.4,209,176.6,367.9,287.9,438
		c111.3-70.1,237.5-228.9,287.9-438c26.9-111,34.3-235.6-0.6-334.5C1913.7,214.4,1867.2,225.4,1819.1,231.9z M1648.5,876.1
		c-1.5,10.7,3,15.3,1.9,20.4c-1.9,8.4-7.1,5.8-10.2-0.3c-4.3-8.4-7.1-12.4-8.4-25.1c-1.9-20.2,8.1-29.8,12.7-34.4l0,0
		c2.9-2.9,6.1-5.4,9.7-7.4l1.6,33.7C1655.7,863.1,1650.1,865.3,1648.5,876.1z M1696.7,811.3L1696.7,811.3
		c-0.6,29.9-2.5,85.6-2.7,98.5c-0.1,5.7-2.3,10-12.8,10.3c-9,0.2-12.8-3-13.1-12.3c-1.4-41-3.2-118.1-3.2-118.1s11.6,3.6,17,6.7
		c4.8,2.9,9.1,6.3,13,10.2C1696,808.6,1696.8,808.8,1696.7,811.3z M1727.6,832.5c-9.4,7.6-20.6,10.4-20.6,10.4l1.2-30.5
		c0,0,3.4-2.9,2.5-6.8c-1.6-6.2-23.3-20.7-34.9-25.2c-12-4.6-27.7-9.2-39-14.1c-26.3-11.5-35.8-34.4-25.2-59.6l0,0
		c4-9.2,14.5-15.6,20.1-19c6.2-3.7,15.5-6.5,15.5-6.5l2.7,35.7c0,0-3.4,1.2-4.4,4.4c-1.9,6.3,3.8,9.8,5.2,10.4
		c17.3,7.6,42.3,17.6,60.5,28.4c23.7,13.9,31.3,23.9,31.4,40.5C1743.1,813.2,1737.5,825,1727.6,832.5z M1661,663.2
		c17.2,2,23.6,2.5,38.2,4.3l-1.4,71.4l-33.1-16.9L1661,663.2z M1765.3,678.6c-3,12.8-11.3,23.1-24.6,31.1
		c-14.1,8.5-28.7,9.1-28.7,9.1l1.2-43.2c0,0,3.2-0.7,5.5-3.6c2.1-2.6,2.8-4.5,2.1-8.3c-0.7-3.3-3-6.1-6.2-7.5
		c-10.9-2.5-34.9-5.3-75.4-11.1c-37.7-6.2-64.4-27.9-62.2-64c1.6-24.1,26.9-31.6,44.7-39.3c5,8.8,9.4,17.9,13.4,27.2
		c3.4,9.9,5.3,16.1,5.3,16.1s-8.1,1.4-7.4,8.1c0.6,5.9,7.1,8.4,11.1,8.9c26.4,3.7,61.5,8,80.1,14.5c12.4,4.2,24.6,11.2,31.6,20.8
		C1766.3,651.9,1768.7,663.7,1765.3,678.6z M1645.4,507c0,0,8.9,1,30.5,2.3c16.4,1,27.6,5.8,27.6,5.8l-2.1,78.7h0
		c-17.6-3.4-29.1-5.3-45.6-7.4c-5.4-28.5-12.2-38.3-23.7-59.2c-2.6-4.7-0.3-6.5,0.3-7.8c1.6-2.8,13.2-5.6,13.2-5.6L1645.4,507z
		 M1716.1,585.1c0,0,2.3-37.4,2.5-55.4c9.9-4,12.1-13.5,8.4-21.6c-2.1-4.5-9.5-7.6-13.9-8.8c-20.5-5.2-39.3-6.2-60.6-8.4
		c-18.5-2-33.3-4.5-50.4-8.8c-34.9-8.9-64.6-25.1-80.1-56.8c-18.5-39.7-2.9-86.9,35.7-107.7c28.6-14.8,60.7-12.1,89.5-1
		c10,3.8,15.3,12.6,21.5,20.9c2.9,3.8,7,5.3,9.5,9.5c1.4,2.4-1.8,3.6-3.2,4c-6.4,1.7-27.5,1.9-34.4,1.2c-8.6-1-23-0.6-31.6,1.2
		c9.1,5.1,18.7,11.4,27.7,14.8c5.5,2.1,9.8,2,14.9,4.6c2.1,1.1,8,2.8,8,5.6c-0.6,2.7-5.6,3.8-9.3,4.9c-8.1,2.5-19.3,2.7-29.7,0.3
		c-16.5-3.8-24.1-13.4-34.4-7.4c-6.7,4-6.9,13.2-4.6,22.6c3.5,14.6,18.9,20.7,31.8,24.9c44.9,14.5,92.8,6.3,136.6,28.8
		c16.9,8.7,36,26.4,39.7,45.2h0C1804.6,575.9,1716.1,585.1,1716.1,585.1z M1794.4,343.3c-2.5,8.2-4.5,8.1-9.9,13
		c-11.1,10.2-25.9,20.7-40.5,34.6c-9.3,8.9-18.1,14.1-24.8,24.7c-1.4,2.5-4.9,9.1-4.9,9.1c-24.7-5.1-50-5.4-69.1-9.5l-1-21
		c0,0,24.7-0.3,27.2-15.2c0.1-0.8-0.5-5.3-3.3-7.3c-3.9-2.4-8.1-4.4-12.4-5.9c18.7,2.9,35.2,9.9,54.4,18.3c1.2-2.1-1.9-9.3-3.4-10.8
		c-2.6-3-5.7-5.3-12.4-6.8c-11.7-3-39.9-6.5-39.9-6.5l23.9-1c6-1,12.1-3.3,13.5-5.4c2.3-5.1-6.7-13.2-12.5-21
		c-2.9-3.9-6.6-11.4-11.7-16.1c-6.2-7.5-25.2-14.5-25.2-14.5s-1.6-12.7,1.6-18.9c2.3-4.6,12.4-5.1,15.6-3.5
		c14.1,8,30.1,16.7,48.9,20v0l0,0h0c4,2.9,4,3.7,5.3,9.5c2.7,12.8-2.2,31.3,0.3,40.1c1.3,2.9,4.1,2.8,6.3,1.6
		c17.6-9.5,29.6-25.8,47.3-33.4C1776,314,1799.8,326,1794.4,343.3z"/>
	<path fill="#FFFFFF" d="M1676.5,973.7c0,0-0.1-0.1-0.1-0.1c0,0-0.1,0.1-0.1,0.1H1676.5z"/>
	<path fill="#FFFFFF" d="M2038.1,36.7c-114.3,57.6-228.1,88.6-361.8,89c-133.6,0.4-247.5-32-361.8-89.6
		c-75.1,147.7-86.8,387.6-22,588c62.5,193.2,183.8,369.2,383.7,479.7c200.1-110.5,321.3-286.5,383.8-479.7
		C2125,423.7,2113.1,184.5,2038.1,36.7z M1984.7,601.2c-56.1,164.9-143.8,311-308.4,412.9c0.1,0,0.1,0.1,0.2,0.1h-0.4h0
		c0.1,0,0.1-0.1,0.2-0.1c-164.5-102-252.1-248-308.3-412.9c-49.9-146.5-62.1-317.9-7.3-451.6c82.3,28.3,130.5,37.1,175.3,44
		c46.3,7.3,93.2,11.1,140.1,11.3h0.5c61.1-0.8,98.3-4.8,140.1-11.3c44.7-7,93-15.8,175.2-44C2046.7,283.4,2034.5,454.7,1984.7,601.2
		z"/>
</g>
<path opacity="0.31" fill="#FFFFFF" d="M9,1331.8h177.7c17.9,0.4,37.7,1.3,56.1,9.4c34.1,16.6,34.9,50.2,34.9,57.4
	c0.3,17.8-6.7,35-19.3,47.5c-21.1,22-48.9,25.2-69.1,27.4c22,0.9,57.4,2.7,84.8,30.5c10.7,10.3,23.7,28.7,23.7,57.9
	c0,20.6-6.7,42.1-23.7,59.2c-25.6,25.5-57.9,26.5-85.8,27.4H9v-11.7h43.5v-293.4H9L9,1331.8L9,1331.8z M123.8,1345.2l-0.9,122.5
	h29.6c19.8,0,35.5-6.3,41.7-14.4c7.6-9,11.6-23.8,11.6-47.1c0-50.7-15.7-60.1-50.2-61.1L123.8,1345.2L123.8,1345.2z M122.9,1480.6
	l0.9,154.8H158c15.7-0.8,32.3-2.2,46.6-16.1c18.5-18.8,18.5-51.2,18.5-62.4c0-34.5-7.6-52.9-21.5-63.7c-10.3-8.1-28.2-13-55.6-12.7
	H122.9 M371.3,1331.8c21.1-0.5,27.4-0.5,47.1-1.8v306.8h30.9v11.7h-131v-11.7H352v-293.4h-33.6v-11.6L371.3,1331.8 M494.1,1431.3
	c23.4-0.4,30.5-0.4,52.5-1.7l-0.9,142.2c0,17,0.9,30,4.5,39c5.8,14,17.9,20.2,32.8,20.2c13,0,24.2-4.9,32.8-13
	c17.4-17.5,17.1-40.8,17.1-60.6l-1-114.4h-33.3v-11.7c0,0,64.6-0.4,98.3-1.7v206.7h32.3v12.2H695c-28.7,0-39,0.4-60.5,1.8l-1.4-34.6
	c-9.4,11.7-31.3,37.7-82.1,37.7c-33.2,0-54.3-12.5-62.8-29.6c-6.7-12.6-6.2-28.7-6.2-42.2l-1-138.6h-32.8v-11.7H494.1 M956.1,1585.7
	c-11.6,22-35.8,67.7-103.7,67.7c-69.6,0-112.2-53.3-112.2-115.6c0-59.7,40.4-112.6,112.6-112.6c44.9,0,69.6,19.3,80.3,30.4
	c24.7,25.6,25.6,52.5,26.1,71.8H809.4c0.5,38.1,1.4,72.6,20.2,92.5c10.3,10.7,25.1,15.3,39.9,15.3c48.4,0,66.9-40.8,73.2-55.2
	L956.1,1585.7L956.1,1585.7z M890.6,1513.9c0.4-35,0.8-76.3-39.5-76.3c-38.2,0-39.9,38.2-41.2,76.3H890.6 M1278.6,1626
	c-33.2,12.1-74.5,26.9-126.1,26.9c-92.4,0-161-66.4-161-163.3c0-104.5,78.9-165.1,168.2-165.1c27.4,0,69.6,6.3,117.1,26.9v89.3h-14
	c-2.2-17.1-5.7-44.9-33.1-72.3c-17.4-18.1-41.4-28.5-66.5-28.7c-23.7,0-47.5,9.9-63.3,25.6c-22.4,22.4-32.3,58.3-32.3,123.9
	c0,63.3,7.6,102.3,30.9,126c13,13.5,33.6,24.3,58.3,24.3c23.7,0,52-9.5,74.9-33.6c26.9-27.8,30.1-51.6,31.9-68.7h14.8V1626
	 M1402.3,1636.8h33.2v11.7h-131.4v-11.7h32.8V1443h-32.8v-11.7c0,0,70.9-0.4,96.4-1.7l0.9,44c2.7-10.7,8.3-20.5,16.2-28.2
	c10.7-11.3,25.6-17.8,41.2-18c28.7,0,40.8,22.8,40.8,43.1c0,27.3-17.9,31.9-27.8,31.9c-4.4,0-27.8-2.3-27.8-29.6
	c0-2.3,1.4-13.5,1.4-15.7c0-9.5-6.8-9.5-8.1-9.5c-5.9,0-14,7.2-19.8,16.1c-14.8,23.8-15.7,58.7-16.2,83.5L1402.3,1636.8
	 M1740.9,1540.7c0,70.9-56.5,112.6-117,112.6c-65.9,0-114-47.5-114-114.3c0-70.4,51.2-112.6,113-113.5
	C1695.6,1424.1,1740.9,1475.7,1740.9,1540.7z M1578,1530.1c0,70.4,4.5,110.8,47.6,110.8c43.5,0,46.6-40.9,46.6-100.1
	c0-54.2-2.7-104-47.1-103.6C1583.4,1437.2,1578,1479.8,1578,1530.1 M1787.9,1566c1.8,12.9,3.1,23.8,10.3,37.2
	c7.1,14.4,25.6,36.8,57.4,36.8c26.5,0,44-14.8,44-32.8c0-20.2-19.8-28.3-48.5-38.6c-39.9-14.8-73.5-26.9-73.5-74.5
	c0-56.6,49.4-69.6,80.3-69.6c24.6,0,44.9,7.1,66,14.4l0.9,58.3h-13.5c-1.4-8.3-3.7-16.4-6.8-24.2c-5.7-12.1-22.8-33.6-51.6-33.6
	c-24.2,0-35,16.1-35,27.4c0,13.8,11.7,19.7,16.6,21.9c7.1,3.2,42.6,16.1,50.7,19.3c27.4,11.2,55.7,26.5,55.7,67.7
	c0,47.1-36.8,78.2-90.6,78.2c-29.7,0-52-8.1-75.4-16.6l-1-71.3H1787.9 M1983.8,1566c1.7,12.9,3.1,23.8,10.3,37.2
	c7.2,14.4,25.6,36.8,57.4,36.8c26.5,0,44-14.8,44-32.8c0-20.2-19.7-28.3-48.5-38.6c-39.9-14.8-73.5-26.9-73.5-74.5
	c0-56.6,49.4-69.6,80.4-69.6c24.6,0,44.8,7.1,65.9,14.4l0.9,58.3h-13.5c-1.4-8.3-3.6-16.4-6.7-24.2c-5.8-12.1-22.8-33.6-51.5-33.6
	c-24.2,0-35.1,16.1-35.1,27.4c0,13.8,11.7,19.7,16.6,21.9c7.2,3.2,42.7,16.1,50.7,19.3c27.4,11.2,55.6,26.5,55.6,67.7
	c0,47.1-36.8,78.2-90.6,78.2c-29.7,0-52-8.1-75.4-16.6l-0.9-71.3H1983.8 M9.6,1747.1H178c17,0.5,35.7,1.3,53.2,8.9
	c32.3,15.8,33.2,47.7,33.2,54.4c0.3,16.9-6.3,33.1-18.3,45.1c-20,20.9-46.4,23.9-65.5,25.9c20.9,0.9,54.4,2.5,80.4,28.9
	c10.2,9.8,22.5,27.2,22.5,54.9c0,19.6-6.4,39.9-22.5,56.1c-24.3,24.2-54.8,25-81.2,25.9H9.6v-11.1h41.2V1758H9.6L9.6,1747.1
	L9.6,1747.1z M118.4,1759.8l-0.9,116.1h28.1c18.7,0,33.6-6,39.5-13.6c7.2-8.6,11-22.5,11-44.6c0-48-14.8-57-47.6-57.9L118.4,1759.8
	L118.4,1759.8z M117.6,1888.2l0.9,146.7h32.3c14.8-0.8,30.6-2.1,44.2-15.3c17.5-17.8,17.5-48.5,17.5-59.1c0-32.8-7.2-50.2-20.4-60.4
	c-9.7-7.6-26.8-12.3-52.7-11.9L117.6,1888.2 M353,1747.1c20-0.4,25.9-0.4,44.7-1.7v290.8H427v11.1H302.8v-11.1h32v-278.1h-32v-11
	L353,1747.1 M469.4,1841.4c22.1-0.5,28.8-0.5,49.7-1.6l-0.8,134.7c0,16.1,0.8,28.5,4.3,37c5.5,13.2,17,19.1,31,19.1
	c11.6,0.1,22.7-4.3,31-12.3c16.6-16.6,16.1-38.7,16.1-57.4l-0.8-108.5h-31.5v-11c0,0,61.3-0.5,93.1-1.6v196h30.6v11.5h-32.3
	c-27.2,0-37,0.5-57.4,1.7l-1.3-32.8c-8.9,11.1-29.8,35.8-77.8,35.8c-31.4,0-51.5-11.9-59.5-28.1c-6.5-11.9-6-27.3-6-40l-0.8-131.4
	h-31v-11L469.4,1841.4 M903,1987.7c-11,20.8-34,64.2-98.2,64.2c-65.9,0-106.3-50.6-106.3-109.7c0-56.5,38.2-106.7,106.7-106.7
	c42.5,0,66,18.2,76.2,28.9c23.3,24.2,24.2,49.7,24.6,68H764c0.4,36.2,1.3,68.8,19.1,87.6c10.1,9.8,23.8,15,37.9,14.5
	c45.9,0,63.4-38.8,69.3-52.3L903,1987.7L903,1987.7z M840.9,1919.7c0.5-33.2,0.9-72.3-37.4-72.3c-36.1,0-37.8,36.2-39.2,72.3H840.9
	 M948.9,1944.8c2.1,12.3,4.2,23.4,11.5,38.3c25.5,52.7,71.9,54,81.3,54c33.6,0,62-20,62-51c0-31-23.4-41.3-87.6-67.6
	c-10.2-4.3-20-8.1-29.3-13.2c-11.1-6-47.6-27.3-47.6-76.2c0-52.7,42-88,101.2-88c37,0,65.9,12.3,81.2,18.7l4.3,71.5h-13.6
	c-6-22.1-9.4-34.5-24.2-49.3c-14.8-15.3-34.5-26-55.7-26c-32.3,0-49.4,21.7-49.4,43.9c0,27.2,24.7,38.7,35.7,43.8
	c14.5,6.7,28.9,11.9,43.4,17.8c37,14.8,83.4,36.9,83.4,95.2c0,54.9-42.9,95.3-114.8,95.3c-36.6,0-64.6-10.2-92.2-20l-2.5-87.2
	L948.9,1944.8 M1207.3,1747.1c21.7,0,26.8-0.4,45.9-1.7l-0.8,127.1c8-12.7,16.1-24.7,40.4-31.9c10.2-3.4,20.4-4.6,31-4.6
	c31.5,0,46.8,12.3,53.6,18.7c15.8,15.8,17,34.4,17.9,50.6l0.8,130.9h29.4v11.1h-124.6v-11.1h32.7l0.8-131.8c0-16.6,0-49.8-33.2-49.8
	c-12,0.2-23.4,5-31.8,13.6c-14.5,14.5-15.8,33.6-17,58.2l0.8,109.7h31.9v11.1h-124.2v-11.1h31v-278.1h-31v-11L1207.3,1747.1
	 M1527,1839.8v196.3h29.4v11.1h-124.2v-11.1h31.9v-183.7h-31.9v-11C1432.1,1841.4,1497.6,1841,1527,1839.8L1527,1839.8z
	 M1460.2,1778.6c0-18.3,15.3-33.6,34-33.6c18.3,0,33.2,14.8,33.2,33.6s-14.8,33.6-33.2,33.6C1475.8,1811.6,1461,1797,1460.2,1778.6
	 M1774.7,1987.7c-11,20.8-34,64.2-98.2,64.2c-66,0-106.3-50.6-106.3-109.7c0-56.5,38.2-106.7,106.7-106.7
	c42.5,0,65.9,18.2,76.2,28.9c23.3,24.2,24.2,49.7,24.6,68h-142c0.4,36.2,1.3,68.8,19.1,87.6c10.1,9.8,23.8,15,37.9,14.5
	c45.9,0,63.4-38.8,69.2-52.3L1774.7,1987.7z M1712.7,1919.7c0.4-33.2,0.8-72.3-37.4-72.3c-36.2,0-37.9,36.2-39.2,72.3H1712.7
	 M1840.6,1747.1c20-0.4,25.9-0.4,44.6-1.7v290.8h29.4v11.1h-124.2v-11.1h31.9v-278.1h-31.9v-11L1840.6,1747.1 M2087.9,1747.1
	c24.7,0,32.4-0.4,51.5-1.7v290.4h30.2v11.5c0,0-63.8,0.5-91.5,1.7v-28.1c-9.7,12.3-25,31-64.6,31c-63.8,0-89.3-57.9-89.3-104.6
	c0-66.7,39.9-109.6,94.8-109.6c26.3,0,40.4,8.5,50.2,18.2c4.2,3.7,7.3,8.6,8.9,14.1l-0.8-111.9h-31.4v-11L2087.9,1747.1
	L2087.9,1747.1z M2005.5,1865.7c-12.3,12.8-14.5,37.9-14.5,77.8c0,48.9,1.3,89.7,40.4,89.7c12.3,0.2,24.2-4.7,32.7-13.6
	c11.5-11.9,14.8-26.8,14.8-80.3c0-38.3,0-85-45.1-84.7C2023.3,1854.2,2013,1858.2,2005.5,1865.7"/>
</svg>
