<svg xmlns="http://www.w3.org/2000/svg" viewBox="0 0 103 65.03">
<defs>
    <style>
      .cls-1 {
        fill: #1b1919;
        fill-rule: evenodd;
      }
    </style>
  </defs>
  <path class="cls-1" d="M687.2,7541.8a14.837,14.837,0,0,0-.277-15.53c-2.925-4.47-8.4-6.21-13.233-7.74L673,7518.3a48.927,48.927,0,0,0-8.566-2.11,23.512,23.512,0,0,0-6.532.11c-0.24.04-.49,0.06-0.754,0.08a3.974,3.974,0,0,0-2.468.78,1.928,1.928,0,0,0-.665,1.74,1.646,1.646,0,0,0,.7,1.07,4.253,4.253,0,0,0,2.431.59c0.415,0,.824-0.02,1.22-0.05,0.261-.01.512-0.03,0.746-0.04H659.3c0.386-.02,1.188-0.06,1.991-0.06a7.44,7.44,0,0,1,1.8.13c-0.031.29-.073,0.56-0.114,0.82a11.615,11.615,0,0,0-.149,1.27,14.074,14.074,0,0,0,.162,2.52c0.048,0.37.1,0.74,0.152,1.11,0.1,0.71.2,1.45,0.276,2.16,0.3,3.07.764,6.14,1.207,9.11,0.184,1.23.368,2.46,0.543,3.7,0.106,0.76.279,1.51,0.447,2.23a18.127,18.127,0,0,1,.528,3.1,4.72,4.72,0,0,1-.333,2.43,2.817,2.817,0,0,1-.467.48,1.767,1.767,0,0,0-.784,1.13,0.527,0.527,0,0,0,.256.41,0.9,0.9,0,0,0,.317.12l0.113,0.03a10.3,10.3,0,0,0,3.53.57c4.174,0,8.461-1.97,10.11-2.81C681.861,7547.39,685.175,7545.35,687.2,7541.8Zm-11.705,3.99c-1.255.7-2.975,1.65-4.271,1.65-1.043,0-1.628-.61-1.841-1.93-0.378-2.33-.71-4.65-0.985-6.87-0.131-1.06-.232-2.03-0.308-2.96-0.062-.77-0.116-1.53-0.171-2.3a54.644,54.644,0,0,0-1.266-9.65,6.823,6.823,0,0,0-1.448-2.9,0.753,0.753,0,0,1-.1-0.14c0.032,0,.075-0.01.133-0.01a7.348,7.348,0,0,1,1.519.28c0.1,0.02.181,0.04,0.228,0.05,1.6,0.34,2.918.66,4.142,1.01a50.3,50.3,0,0,1,5.948,2.23c2.937,1.26,7,3.39,8.362,7.38,1.154,3.37-.375,6.83-4.545,10.29a32.583,32.583,0,0,1-5.111,3.71Zm80.338-8.44c-4.92-1.21-4.009,4.77-5.318,7.76a10.586,10.586,0,0,1-.836,1.88,3.5,3.5,0,0,1-4.73.98,2.948,2.948,0,0,1-1.139-1.63,9.136,9.136,0,0,1-.309-2.11,8.494,8.494,0,0,1-.084-2.27c-0.534-1.59-1.414-2.58-3-2.05-1.121.38-1.017,2.64-1.251,3.54a6.328,6.328,0,0,1-2.475,3.66c-1.666,1.11-4.541.27-6.076-.71-0.923-.59-2.347-1.97-2.436-3.15a4.122,4.122,0,0,0,1.856-.4,10.448,10.448,0,0,0,2.317-1.51c1.721-1.68,1.489-4.07.556-6.06-2.927-3.76-4.779,1.44-7.059,3.18-1.295.87-2.743-1.08-2.38-2,0.381-1.23,1.383-2.42,1.141-3.68-0.156-1.11-1.267-1.11-2.1-.83-1.542.5-2.461,3.12-3.237,4.4-1.124,1.86-2.249,3.71-3.19,5.67a14.59,14.59,0,0,1-1.508,2.2c-0.5-.87-1.321-1.55-1.9-2.37-0.61-.86-1.135-1.78-1.825-2.58-1.136-1.32-2.043-3.18-3.412-4.26-0.836-.66-2.634-1.25-3.431-0.2a3.554,3.554,0,0,0-.75,3.2,6.281,6.281,0,0,0,.993,1.9c0.5,1.08,1.488,1.88,1.934,3.02a5.5,5.5,0,0,1,.281,2.57,5.163,5.163,0,0,1-.874,2.87c-2.282,2.69-3.728-3.11-3.641-4.67,0.029-.52.429-1.4-0.013-1.82-0.966-.91-1.681.63-2,1.23a11.709,11.709,0,0,1-1.239,1.69,7.027,7.027,0,0,1-.559.6c-0.2.19-.4,0.38-0.595,0.57a4.1,4.1,0,0,1-4.277,1.22,2.179,2.179,0,0,1-1.7-2.53c0.4-2.14,3.3-4.02,5.255-4.42,0.722-.14,1.672-0.06,2.229-0.63a1,1,0,0,0-.112-1.43c-0.863-.99-2.217-0.6-3.281-0.22a25.974,25.974,0,0,0-3.907,1.48,10.111,10.111,0,0,0-2.562,1.9,13.52,13.52,0,0,0-2.491,4.1c-0.484,1.33-.991,3.23,0,4.46a4.113,4.113,0,0,0,2.025,1.41c4.249,0.98,7.726.17,10.271-3.1a1.313,1.313,0,0,1,.658.06,6.684,6.684,0,0,1,2.009,2.51c1.115,1.69,3.777,2.77,5.243.88,1.04-1.33,1.087-3.42,1.5-5.02a0.588,0.588,0,0,1,.242.02c0.593,1.18,2.051,5.39,3.753,5.05,4.151-.85,5.229-6.2,7.126-9.3,0.359-.59.779-2.53,1.761-2.33,0.608,0.12,1.175,1.72,1.466,2.19q0.291,0.465.536,0.96c0.163,0.33.314,0.67,0.452,1.01a21.438,21.438,0,0,0,1.973,4.21,8.492,8.492,0,0,0,5.981,3.5,8.336,8.336,0,0,0,6.425-1.83,5.975,5.975,0,0,1,.989-0.79c0.763-.47,1.68-1.56,2.419-0.9,0.722,0.64,1.016,1.68,1.71,2.36a5.228,5.228,0,0,0,3.367,1.54,7.33,7.33,0,0,0,1.546-.25,0.729,0.729,0,0,1,.978.72,6.6,6.6,0,0,1,.133,1.12c-0.472,3.64-.682,7.37-1.913,11-0.132.37-.274,0.75-0.422,1.12a19.407,19.407,0,0,1-4.5,6.83c-0.232.23-.468,0.45-0.708,0.67s-0.484.43-.731,0.64c-0.34.28-.683,0.56-1.032,0.82-1.9,1.61-5.686,2.34-6.083,3.88-0.486,3.09,4.848,2.46,7.011.39,0.425-.26.845-0.53,1.247-0.8s0.782-.55,1.137-0.81,0.68-.53.972-0.77c3.274-2.24,5.021-5.57,6.735-9q0.424-.96.764-1.95a27.741,27.741,0,0,0,1.056-4.06c0.107-.44.211-0.87,0.314-1.3a52.87,52.87,0,0,0,1.333-7.67c0.086-.75.2-1.49,0.334-2.21,0.533-2.9,1.374-5.65,1.99-8.62,0.031-.26.058-0.51,0.079-0.77,0.072-.78.116-1.55,0.161-2.33A1.4,1.4,0,0,0,755.834,7537.35Zm-24.551,1.17c0.251,1.14-1.873,2.67-2.861,2.1C728.425,7540.62,730.817,7536.39,731.283,7538.52Zm-55.858,21.21-2.8,6.59h1.465l0.6-1.46h2.763l0.6,1.46h1.5l-2.8-6.59h-1.325Zm-0.225,3.85,0.869-2.12,0.868,2.12H675.2Zm15.117,0.63-1.465-4.45H687.62l-1.466,4.45-1.353-4.43H683.26l2.23,6.59h1.253l1.473-4.28,1.477,4.28h1.25l2.231-6.59h-1.5Zm8.808-4.48-2.8,6.59h1.466l0.6-1.46h2.763l0.6,1.46h1.5l-2.8-6.59h-1.324Zm-0.225,3.85,0.869-2.12,0.868,2.12H698.9Zm14.857-1.62v-0.02a2.071,2.071,0,0,0-.561-1.5,2.6,2.6,0,0,0-1.9-.66H708.3v6.54h1.438v-2.09h1.13l1.4,2.09h1.681l-1.6-2.34A2.02,2.02,0,0,0,713.757,7561.96Zm-1.457.07a0.953,0.953,0,0,1-1.1.93h-1.457v-1.88h1.429a0.943,0.943,0,0,1,1.13.93v0.02Zm9.346-2.25H719.1v6.54h2.546a3.274,3.274,0,0,0,3.475-3.27v-0.02A3.258,3.258,0,0,0,721.646,7559.78Zm1.972,3.29a1.861,1.861,0,0,1-1.972,1.95h-1.109v-3.94h1.109a1.877,1.877,0,0,1,1.972,1.97v0.02Zm11.458,1.32v-0.02c0-1.14-.747-1.62-2.074-1.96-1.129-.29-1.409-0.43-1.409-0.86v-0.02a0.689,0.689,0,0,1,.84-0.57,3.069,3.069,0,0,1,1.7.64l0.747-1.08a3.748,3.748,0,0,0-2.427-.84,2.05,2.05,0,0,0-2.288,1.98v0.01c0,1.31.85,1.67,2.166,2.01,1.092,0.28,1.318.46,1.318,0.83v0.02c0,0.38-.355.61-0.944,0.61a2.97,2.97,0,0,1-1.951-.79l-0.85,1.02a4.164,4.164,0,0,0,2.774,1.05C734.086,7566.42,735.076,7565.69,735.076,7564.39Z" transform="translate(-654 -7516)"/>
</svg>
