<?xml version="1.0" encoding="utf-8"?>
<!-- Generator: Adobe Illustrator 17.1.0, SVG Export Plug-In . SVG Version: 6.00 Build 0)  -->
<!DOCTYPE svg PUBLIC "-//W3C//DTD SVG 1.1//EN" "http://www.w3.org/Graphics/SVG/1.1/DTD/svg11.dtd">
<svg version="1.1" id="Layer_1" xmlns="http://www.w3.org/2000/svg" xmlns:xlink="http://www.w3.org/1999/xlink" x="0px" y="0px"
	 viewBox="0 0 399.3 419.3" enable-background="new 0 0 399.3 419.3" xml:space="preserve">
<g>
	<path fill="#020202" d="M25.5,304.7l175,94.3l176-94.3V112.4L201,19.7L25.5,112.4V304.7z M43.5,123.3L201,40l157.5,83.2v170.7
		l-158,84.7L43.5,294V123.3z"/>
	<path fill="#020202" d="M200.5,8.2L14,106.7v203.5L199,410l0.9,0.5L387,310.3V106.7L200.5,8.2z M383,307.9L199.9,406L18,307.9
		V109.1l182.5-96.5L383,109.1V307.9z"/>
</g>
<path d="M34,163.8v88h333.5v-88H34z M143,229.4c-3.8,2.7-8.1,4.3-12.7,4.8c-0.2,0-0.3,0.1-0.4,0.1c-1.4,0-2.9,0-4.3,0
	c-0.2,0-0.3-0.1-0.5-0.1c-1.3-0.2-2.6-0.3-3.8-0.7c-10.5-3-16.5-10.2-18.6-20.7c-0.2-1.1-0.3-2.3-0.5-3.4c0-1.3,0-2.6,0-3.9
	c0.2-1.1,0.3-2.3,0.5-3.4c1.9-9.5,6.9-16.7,16.2-20c10.1-3.6,19.3-1.5,27.3,5.8c0.5,0.5,1,1,1.5,1.6c0,0,0,0.1,0,0c-2,2-3.9,3.9-6,6
	c-0.5-0.5-1-1.2-1.6-1.8c-5.8-5.7-15.2-6.5-21.8-2c-3.8,2.6-6.1,6.3-7,10.8c-1.2,5.4-0.7,10.6,2.3,15.3c3.6,5.8,8.9,8.3,15.7,7.9
	c4.5-0.3,8.4-2.2,11.6-5.4c0.4-0.4,0.8-0.8,1.2-1.3c2,2.1,4,4.1,5.9,6.1C146.3,226.7,144.7,228.2,143,229.4z M161.6,233.6
	c-2.8,0-5.6,0-8.5,0c0-0.2,0-0.5,0-0.7c0-17.8,0-35.5,0-53.3c0-0.3,0-0.5,0-0.8c2.8,0,5.6,0,8.5,0c0,0.3,0,0.5,0,0.8
	c0,17.7,0,35.5,0,53.2C161.6,233,161.6,233.3,161.6,233.6z M201,233.6c-2.8,0-5.6,0-8.5,0c0-0.7,0-1.4,0-2.1
	c-0.2,0.1-0.4,0.2-0.5,0.3c-2,1.3-4.2,2.1-6.6,2.4c-0.1,0-0.2,0.1-0.3,0.1c-1.1,0-2.2,0-3.4,0c-0.7-0.1-1.4-0.3-2.1-0.4
	c-5.5-1.4-8.8-5-10.1-10.4c-0.4-1.6-0.6-3.3-0.6-5c-0.1-7,0-13.9,0-20.9c0-0.2,0-0.5,0-0.8c2.9,0,5.7,0,8.5,0c0,0.3,0,0.5,0,0.8
	c0,6.9,0,13.8,0,20.6c0,1.5,0.2,3,0.8,4.5c1,2.1,2.6,3.2,5,3.2c2.4,0,4.6-0.5,6.5-2c2.1-1.8,2.8-4.2,2.8-6.9c0-6.5,0-12.9,0-19.4
	c0-0.2,0-0.5,0-0.7c2.8,0,5.7,0,8.5,0C201,209,201,221.3,201,233.6z M226.5,204.7c-2.3,0-4.6,0-6.9,0c0,9.6,0,19.2,0,28.8
	c-2.9,0-5.7,0-8.6,0c0-9.6,0-19.2,0-28.8c-2,0-4,0-5.9,0c0-2.7,0-5.3,0-8c0.2,0,0.4,0,0.6,0c1.6,0,3.2,0,4.8,0
	c0.5,0,0.6-0.1,0.6-0.6c0-3.6,0-7.3,0-11c0-0.2,0-0.5,0-0.8c2.9,0,5.6,0,8.5,0c0,0.3,0,0.5,0,0.7c0,3.4,0,6.9,0,10.3
	c0,1.3,0,1.3,1.3,1.3c1.6,0,3.3,0,4.9,0c0.2,0,0.4,0,0.7,0C226.5,199.4,226.5,202,226.5,204.7z M242.9,205.1c-4.2,1.3-6.6,5-6.8,9.7
	c-0.1,5.6,3.4,10,8.9,10.9c3.5,0.6,6.6-0.3,9.2-2.7c0.4-0.4,0.8-0.7,1.3-1.1c1.9,2.1,3.9,4.1,5.9,6.2c-0.8,0.7-1.7,1.6-2.8,2.4
	c-2.9,2.2-6.3,3.5-9.9,3.7c-0.2,0-0.3,0.1-0.5,0.1c-0.9,0-1.7,0-2.6,0c-1-0.2-2-0.3-3-0.5c-7.4-1.4-13.3-7.4-14.6-14.8
	c-0.9-4.7-0.4-9.3,1.9-13.5c2.6-4.8,6.7-7.8,12-9c5.6-1.3,10.8-0.5,15.7,2.6c1.4,0.9,2.6,2,3.8,3c-2.1,2-4,4-6.1,6.1
	c-0.3-0.2-0.7-0.6-1.1-0.9C250.9,204.4,247.1,203.8,242.9,205.1z M253,215.2c0,3.5-2.9,6.3-6.4,6.3s-6.4-2.8-6.4-6.4
	c0-3.6,2.8-6.4,6.4-6.4C250.2,208.8,253,211.6,253,215.2z M298,233.6c-2.8,0-5.6,0-8.5,0c0-0.3,0-0.5,0-0.8c0-6.6,0-13.2,0-19.8
	c0-1.3-0.1-2.6-0.4-3.9c-0.7-3.2-2.7-4.7-6-4.7c-1.8,0-3.4,0.4-5,1.4c-2.4,1.5-3.5,3.7-3.7,6.5c-0.1,0.8-0.1,1.5-0.1,2.3
	c0,6.1,0,12.1,0,18.2c0,0.2,0,0.5,0,0.8c-2.8,0-5.6,0-8.5,0c0-0.2,0-0.4,0-0.6c0-17.9,0-35.8,0-53.7c0-0.2,0-0.3,0-0.5
	c2.8,0,5.6,0,8.5,0c0,0.3,0,0.5,0,0.8c0,6.2,0,12.4,0,18.6c0,0.2,0,0.4,0,0.8c0.4-0.2,0.6-0.4,0.9-0.6c4.9-2.9,10-3.2,15.2-0.8
	c4.1,2,6.2,5.5,7.2,9.9c0.2,1,0.3,2,0.5,3C298,218.1,298,225.9,298,233.6z"/>
<g>
	<rect x="72.5" y="153.3" fill="#020202" width="264.5" height="4"/>
	<rect x="72.5" y="258.3" fill="#020202" width="264.5" height="4"/>
</g>
<text transform="matrix(1 0 0 1 180.4873 90.969)"><tspan x="0" y="0" font-family="'Helvetica-Condensed'" font-size="21.3784" letter-spacing="2">TOP</tspan><tspan x="-80.6" y="43" font-family="'Helvetica-Condensed'" font-size="21.3784" letter-spacing="2">USER EXPERIENCE</tspan></text>
<text transform="matrix(1 0 0 1 147.0195 300.4691)"><tspan x="0" y="0" font-family="'Helvetica-Condensed'" font-size="21.3784" letter-spacing="2">AGENCIES</tspan><tspan x="28.6" y="40" font-family="'Helvetica-Condensed'" font-size="21.3784" letter-spacing="2">2018</tspan></text>
</svg>
