<?xml version="1.0" encoding="utf-8"?>
<!-- Generator: Adobe Illustrator 17.1.0, SVG Export Plug-In . SVG Version: 6.00 Build 0)  -->
<!DOCTYPE svg PUBLIC "-//W3C//DTD SVG 1.1//EN" "http://www.w3.org/Graphics/SVG/1.1/DTD/svg11.dtd">
<svg version="1.1" id="Layer_1" xmlns="http://www.w3.org/2000/svg" xmlns:xlink="http://www.w3.org/1999/xlink" x="0px" y="0px"
	 viewBox="0 0 2500 980" enable-background="new 0 0 2500 980" xml:space="preserve">
<g opacity="0.3">
	<polygon fill="#FFFFFF" points="2164.5,613.3 2164.5,613.3 2164.5,613.3 	"/>
	<polygon fill="#FFFFFF" points="1313.8,722.7 1313.8,722.7 1313.8,722.7 	"/>
	<g>
		<path fill="#FFFFFF" d="M2430.2,475.8L2430.2,475.8c-68-113.3-184.5-138.6-238.4-144.2v-50.6h-104.3l-1,0.1
			c-1.8,0.1-177.5,11-224.9-96.3l-7.2-16.4h-249.7c-31.2-35.6-143.8-144.4-354.6-144.4S926.6,132.9,895.4,168.5H645.7l-7.3,16.4
			c-47.5,107.3-223.1,96.4-224.9,96.3l-1.6-0.1H308.1v50.6c-53.9,5.6-170.4,30.9-238.4,144.2L61.2,490l8.5,14.2
			c68,113.3,184.5,138.6,238.4,144.2v50.5h104.4l1-0.1c1.8-0.1,177.5-11,224.9,96.3l7.3,16.4h249.7
			c31.2,35.6,143.7,144.4,354.6,144.4c210.9,0,323.4-108.8,354.6-144.4h249.7l7.2-16.4c47.5-107.3,223.2-96.4,224.9-96.3l1.6,0.1
			h103.7v-50.5c53.9-5.6,170.4-30.9,238.4-144.2l8.5-14.2L2430.2,475.8z M2414.5,494.7c-72.5,120.8-205.1,135.1-241,136.7v49.2
			h-85.7c-1.9-0.1-190-12.7-243,107.2l-2.4,5.4h-246.2c-18.5,23-127,144.4-346.1,144.4S922.4,816.1,903.9,793.1H657.6l-2.4-5.4
			c-53-119.8-241.1-107.3-243-107.2h-85.7v-49.2c-35.9-1.7-168.5-15.9-241-136.7l-2.8-4.7l2.8-4.7c72.5-120.8,205-135.1,241-136.7
			v-49.2h85.7c1.9,0.1,190,12.7,243.1-107.2l2.4-5.4h246.3c18.5-23,127-144.4,346.1-144.4s327.5,121.5,346.1,144.4h246.2l2.4,5.4
			c53,119.8,241.1,107.3,243,107.2h85.7v49.2c36,1.7,168.5,15.9,241,136.7l0,0l2.8,4.7L2414.5,494.7z"/>
		<g>
			<path fill="#FFFFFF" d="M643.3,514.1l-40.9-28.4h0l-41.8,26.1v98.4h78.1c0,0,12.9,2.2,12.9-12.2v-70.4
				C651.7,527.7,652.8,520.6,643.3,514.1z"/>
			<path fill="#FFFFFF" d="M2164.5,366.7l-9.3,0.1v-49.1h-66.4c-11,0.8-197.1,12-257.9-112.6h-243.8l-2.8-3.7
				c-1-1.4-107.1-140.7-334.3-140.7S916.7,200.1,915.7,201.5l-2.7,3.7H669.2c-60.8,124.6-246.9,113.4-257.9,112.6h-66.4v49.1
				l-9.3-0.1c-1.5,0-153.1-0.1-231.1,123.3c78,123.4,229.6,123.3,231.1,123.3l9.3-0.1v49h66.4c11-0.8,197.1-12,257.9,112.6H913
				l2.8,3.7c1,1.4,107.1,140.7,334.3,140.7s333.3-139.3,334.3-140.7l2.8-3.7h243.8c60.8-124.6,246.9-113.4,257.9-112.6h66.4v-49
				l9.3,0.1c1.5,0,153.1,0.1,231.1-123.3C2317.6,366.6,2166,366.7,2164.5,366.7z M255.5,466.6h-9.8v52.4h-11.3v-52.4h-9.8v-9.6h30.8
				V466.6z M293.3,519.1l-5.3-26.7h-2.7v26.7h-11.3v-62h12.8c10.8,0,17.9,4.5,17.9,17.6c0,5.2-1.6,12.2-6.6,15.2l6.7,29.3H293.3z
				 M343.8,519.1l-1.7-13.8H333l-1.6,13.8h-9.5l8.7-62H347l7.7,62H343.8z M386.2,519.1h-11.7h0v-62h9.9c19,0,20.8,12.2,20.8,31
				C405.1,506,403.6,519.1,386.2,519.1z M1562.2,247.3c2.3,2.8,3.9,6.1,4.9,9.6l-12.6,9.6c-0.8-3.1-2.2-6-4.2-8.5
				c-6.6-8.6-19.8-8.8-33.4,1.7c-13.2,10.2-15.9,23.1-9.2,31.7c1.8,2.3,4.2,4.3,7.1,5.8l-13.5,10.4c-3-1.7-5.5-3.9-7.6-6.6h0
				c-13-16.9-8.9-39.3,11.5-55.1C1526.7,229.4,1549.5,230.8,1562.2,247.3z M1507.9,194.8l-53.3,66.2l-13.5-10.9l53.3-66.2
				L1507.9,194.8z M1414.7,154l7.3-13.9l38.1,20l-7.3,13.9l-11.5-6.1l-32.2,61.3l-15.1-7.9l32.2-61.3L1414.7,154z M1337.4,112
				l16.6,4.4l4.9,48.6c0.3,2.8,0.5,8.9,0.6,18.3c1.3-11.4,2.9-21.4,5.3-30.3l8.3-31.6l15.2,4l-21.7,82.1l-15.2-4l-5.9-50.7
				c-0.2-1.5-0.1-6.5-0.2-14.7c-1.3,8.6-3.1,17.1-5.5,25.4l-9.1,34.5l-15.1-4L1337.4,112z M1303.6,580.7c0,0,17.9-2.7,17.9-17v-13.4
				c0,0,0.9-12.5-8.9-21.5l-66.2-63.5c0,0-9.9-8.1-9.9-29.6V407c0,0,2.7-22.4,31.3-22.4h58.2l17.9-0.9l1.4,67.5l-31.8-41.6h-27.7
				c0,0-13.5-1.7-13.5,9V433c0,0-0.6,8.4,3.6,12.5l71.6,68.9c0,0,7.1,9.5,7.1,18.6v49.6c0,0,1.2,28.4-23.6,28.4h-93.4v-98.5h0.1
				l30.2,28.6v39.4H1303.6z M1319.5,293.6c4.1,0,7.5,3.1,7.5,7.5s-3.3,7.6-7.5,7.6c-4.2,0-7.5-3.2-7.5-7.6
				S1315.4,293.6,1319.5,293.6z M1304.5,257.5h-9.5v50.6h-12.5v-50.6h-9.5V246h31.5V257.5z M1257.9,103.1l35.7,1.7l-0.7,15.7
				l-19.3-0.9l-0.8,17.1l17.5,0.8l-0.7,15.6l-17.5-0.8l-1,19.9l19.3,0.9l-0.8,16.5l-35.7-1.7L1257.9,103.1z M1241.3,245.3
				c3.6,0,6.9,1,10.5,3v11c-2.5-1.5-5.4-2.5-8.3-2.8c-3.2-0.2-5.9,2.3-6.1,5.5c0,0.2,0,0.4,0,0.6c0,4.3,2.9,6.8,7.2,10.5
				c6.1,5.2,9.8,8.8,9.8,17.5c0,11.1-6.7,18.3-17.9,18.3c-3.8,0.1-7.5-0.9-10.7-3V293h0c2.4,2.4,5.7,3.9,9.1,4.1
				c4.3,0,6.8-2.4,6.8-6.2c0-4.4-3.3-6.1-7-9.4c-6.5-5.9-9.9-10.6-9.9-18.4C1224.9,252.5,1231.5,245.3,1241.3,245.3z M1168.7,110.3
				l5,31.1l18.7-3l-5-31.1l16.8-2.7l13.4,83.9l-16.7,2.7l-5.8-36.5l-18.7,3l5.8,36.5l-16.6,2.6l-13.4-83.9L1168.7,110.3z
				 M1202.6,270v11.4h-12.8V296h14.1v12.1h-26.1V246h26.1v11.5h-14.1V270H1202.6z M1195.9,383.7l-11.6,15.2v184.9l17.3,27.2h-65.3
				l14-27.2v-39.2l-54.6-70.1v109.4l17.3,27.2h-65.3l14-27.2V398.9l-9.8-15.2h55.5l-11.6,15.2v20.5l54.6,70.1v-90.6l-9.8-15.2
				H1195.9z M1159.7,688.4v-10.3l17.8-8.4v65.9h-11.9v-51.8L1159.7,688.4z M1111.4,124.5l5.8,14.6l-12.1,4.8l25.4,64.4l-15.8,6.3
				l-25.4-64.4l-12.1,4.8l-5.8-14.6L1111.4,124.5z M1006.9,178.6l31.5,44.7c6.3,9,10,13,17.4,7.9c7.1-5,5-9.6-1.6-19l-31.5-44.7
				l13.8-9.7l29.3,41.7h0l1.4,2.1c5.3,7.5,9.1,13.1,9.9,18.3c1.4,9.2-2.8,16.7-12.7,23.7c-9.8,6.9-18.4,8.4-26.6,4
				c-4.7-2.5-8.7-8-13.9-15.4l-1.5-2.1l-29.3-41.6L1006.9,178.6z M949.9,227.6l78.5,37.6l-10.5,13.3l-13.5-6.9l-10.5,13.4l10.1,11.3
				l-10.4,13.3l-54.7-68L949.9,227.6z M453.5,519.1h-26.2v-62h25.6v9.6h-14.3v15.9h10.5v10.1h-10.5v16.9h14.9V519.1z M684.5,516.8
				v92.9c0,38-27,32.1-27,32.1H519.8l8.4-16.1v-261l-9.3-15.2h124.2c24.5,0,23.7,19.4,23.7,19.4v62.5c1.7,16.9-11,23.7-11,23.7
				l-25.3,16.1l33.8,17.7C685.6,499.3,684.5,516.8,684.5,516.8z M813.2,611l8-24.5l-34.9-87.4l-21.4,14.3v73.1l10.6,25.3h-58.2
				l14.3-25.3V400.7l-10.7-16.5h97.6c26.9,0,26,19.2,26,19.2v51c0,16.1-13.4,22.4-13.4,22.4l-17.9,8.9l35.8,86.8l26,38.5H813.2z
				 M890.1,560V398.9l-11.6-15.2h55.5l-9.9,15.2v156.6c0,0-4.5,21.5,17.9,21.5h12.5c22.4,0,17.9-21.5,17.9-21.5V398.9l-9.9-15.2
				h55.5l-11.6,15.2V560c0,0,0,51.9-44.7,51.9l0,0h-26.8C890.1,611.9,890.1,560,890.1,560z M976.6,785.7l8.1-12.8l-12.4-11.7
				l-12.1,9.1l-12.4-11.6l72.5-48.6l12.9,12.1L989,797.3L976.6,785.7z M1080.1,851.1l-13.1-6.3c0,0,25.5-45.3,31-55.9l-37.8,30
				l1.5-46.2l-31.3,51.8l-12.1-7.1l45.1-71.6v0l12.9,8.5l-4.6,42.3l31.3-26.4l15,7.1L1080.1,851.1z M1176.7,810.9l-18.8-4.5
				l-4.1,16.7l17.1,4.1l-3.7,15.2l-17.1-4.1l-4.7,19.4l18.8,4.5l-3.9,16.1l-34.8-8.4l20-82.6l34.8,8.4L1176.7,810.9z M1199.5,718.2
				c0-9,3.5-14.6,9.6-16.3h0.1v-0.6c-5-1.2-7.8-5.7-7.8-13.1c0-10,5.4-15.5,14.9-15.5c9.5,0,14.9,5.5,14.9,15.5
				c0,7.3-2.9,11.9-7.8,13.1v0.6c6.1,1.7,9.6,7.4,9.6,16.3c0,11.3-6.2,18.2-16.6,18.2S1199.5,729.5,1199.5,718.2z M1240,887.6
				l-12.4-35.8l-1.4,35.2l-16.4-0.7l3.4-84.9l17.6,0.7c18.8,0.8,27.4,7.9,26.7,25c-0.5,11.9-5.1,19.1-14.3,21.7l14.8,39.3
				L1240,887.6z M1258.3,720.2v-9.3l16.3-37.4h12v37.4h5v9.3h-5v15.4h-10.4v-15.4H1258.3z M1295.2,884.9l-11.4-84.2l17.1-2.3
				l11.4,84.2L1295.2,884.9z M1312.2,734l1.5-11.3c2.7,1.7,5.8,2.7,9,2.8c6.1,0,9.7-3.6,9.7-10c0-7.4-5.3-11.5-15.1-11.5
				c-1,0-2.1,0.1-3.1,0.2l4.3-30.7h24.2v10.5h-15.6l-1.6,11.3h0.4c11.7,0,18.6,7.2,18.6,19c0,13.4-7.7,22-20.4,22
				C1320.1,736.5,1316,735.7,1312.2,734z M1389.3,864.3L1389.3,864.3c-20.3,6.6-40-4.8-48-29.4c-8.4-25.9,0.6-46.8,20.5-53.2
				c3.4-1.2,7.1-1.6,10.7-1.4l4.9,15.1c-3.2-0.3-6.4,0.1-9.4,1.1c-10.3,3.3-15,15.6-9.7,31.9c5.1,15.9,16.4,22.8,26.7,19.4
				c2.9-1,5.6-2.6,7.9-4.7l5.2,16.2C1395.5,861.5,1392.5,863.3,1389.3,864.3z M1466.2,825.5l-10-11.3l-14.7,8.7l5.3,14.2l-14.6,8.6
				l-26.3-83.2l15.3-9.1l59.5,63.6L1466.2,825.5z M1539.5,765l-46.9-20.3c-1.4-0.6-5.6-3.1-12.8-7.2c6.2,4.8,12.5,10.7,19.3,17.5
				l25.4,25.2l-11,11.1l-60.4-59.8v0l12.1-12.2l44.6,20c2.5,1.2,7.9,4,16.1,8.6c-8.3-6-16.2-12.6-23.6-19.7l-23.2-23l11.1-11.2
				l60.4,59.8L1539.5,765z M1569.8,402.1l-26,183.6l7.3,25.4h-59.9l18.7-29.7L1480,453.2l-29.9,128.2l18.7,29.7H1409l7.3-25.4
				l-26-183.6l-12.7-19.4h61.1l-17.6,19.4l16.3,119.5l26.6-107.1l-8.5-15.1l49,0l-8.5,15.1l26.7,107.1l16.3-119.5l-17.6-19.4h61.1
				L1569.8,402.1z M1605.1,611.1l14-27.2V398.9l-9.8-15.2h55.5l-11.6,15.2v184.9l17.3,27.2H1605.1z M1810.1,447.3l-32.6-33.8h-23.1
				c0,0-17.8-1.8-17.8,19.5v129.4h0c0,21.3,17.8,19.5,17.8,19.5h23.1l32.6-33.8v63.4h-73.5c0,0-30.2-0.6-30.2-30.8V414.7
				c0-30.2,30.2-30.8,30.2-30.8h45l28.4-1.2V447.3z M1961.7,624l12.2-19.9l-59.5-134.8l-30.4,33.6v120.7l17.3,27.2h-65.3l14-27.2
				V350.8l-9.9-15.2h55.5l-11.6,15.2v106.6l72.4-79.5l-13-14.5h62.6c0,0-3.1,9.2-14.5,20.6l-51,56.4l67,153
				c6.9,16,30.5,30.5,30.5,30.5l0,0H1961.7z M2117.7,521.4h-10.1v-45.5h-0.2l-11.3,27.6l-13.2-27.6h-0.1v45.5h-8.4l0-62h12.1
				l9.6,26.8l9.7-26.8h11.8V521.4z M2157.5,521.4l-1.7-13.8h-9.2l-1.5,13.8h-9.5l8.7-62h16.4l7.7,62H2157.5z M2207.6,521.4
				l-5.3-26.7h-2.7v26.7h-11.3v-62h12.7c10.8,0,17.9,4.5,17.9,17.6c0,5.2-1.6,12.2-6.6,15.1l6.7,29.3H2207.6z M2261.3,521.4
				l-6.3-27.8h-0.1l-4.1,9.8v18h-11.3v-62h11.3v26h0.1l9.4-26h10.1l-8.5,20.8l10.2,41.2H2261.3z"/>
			<path fill="#FFFFFF" d="M813.4,420.4c0,0,0.7-7.8-10.7-7.8h-38.8h0v65.2l44.4-27.1c0,0,5.1-2.9,5.1-10.4V420.4z"/>
			<path fill="#FFFFFF" d="M634.7,417.9v-34c0,0,1-13.3-16.1-13.3h-58v111.5l66.4-46.5C627,435.7,634.7,430.7,634.7,417.9z"/>
		</g>
	</g>
	<path fill="#FFFFFF" d="M2238.8,652v4.1h-7.3v19.5h-5.6v-19.5h-7.4V652L2238.8,652z M2251.3,652l6.2,15.7l5.8-15.7h7.4v23.6h-5V657
		l-6.9,18.6h-2.6l-7.2-18.6v18.6h-5V652H2251.3z M285.2,466.1h1.8c3.8,0,6.3,1.9,6.3,8.6c0,4.4-1.6,8.6-5.8,8.6h-2.3V466.1
		L285.2,466.1z M341.2,496.3h-7.1l3.6-29.6h0.1L341.2,496.3z M385.8,466.6c7.2,0.1,7.5,2.6,7.5,21.3c0,18.8-0.3,21.4-7.5,21.5V466.6
		z M1216.1,707.9c3.5,0,5.1,3,5.1,8.8c0,5.9-1.5,8.8-5.1,8.8c-3.5,0-5.1-3-5.1-9.1C1211.1,710.8,1212.7,707.9,1216.1,707.9z
		 M1216.1,682.4c3,0,4.3,2.2,4.3,6.8c0,4.6-1.1,6.8-4.2,6.8c-3.1,0-4.2-2.3-4.2-7.2C1212,684.5,1213.2,682.4,1216.1,682.4
		L1216.1,682.4z M1266.2,710.9l6.6-14c1.1-2.5,2.6-6.4,4.2-11.8c-0.3,4.1-0.4,6.9-0.4,8.3v17.6H1266.2L1266.2,710.9z M983.6,753.7
		c10.9-8.4,21.2-16.7,31-24.7c-8.1,10.4-15.7,21.3-22.7,32.5L983.6,753.7z M1228.1,838.9l0.9-23.6c0.8-0.1,1.5,0,2.3,0
		c7.5,0.3,10.6,4,10.2,12.1c-0.3,8.1-4.3,12-11.6,11.7C1229.4,839.1,1228.7,839,1228.1,838.9L1228.1,838.9z M1437.4,809.9
		c-4.9-12.3-9.9-24.5-15-36.7c8,10.9,16.2,21.3,24.8,30.9L1437.4,809.9L1437.4,809.9z M2154.9,498.5h-7l3.6-29.6h0.1L2154.9,498.5z
		 M2199.6,468.4h1.7c3.8,0,6.3,1.9,6.3,8.6c0,4.4-1.5,8.6-5.8,8.6h-2.3L2199.6,468.4L2199.6,468.4z M985.4,274.3
		c-9-9.7-18.1-19.2-27.3-28.7c11.4,7.3,22.8,13.9,34.3,19.8L985.4,274.3z"/>
</g>
</svg>
