<?xml version="1.0" encoding="utf-8"?>
<!-- Generator: Adobe Illustrator 17.1.0, SVG Export Plug-In . SVG Version: 6.00 Build 0)  -->
<!DOCTYPE svg PUBLIC "-//W3C//DTD SVG 1.1//EN" "http://www.w3.org/Graphics/SVG/1.1/DTD/svg11.dtd">
<svg version="1.1" id="cssda-badge-title" xmlns="http://www.w3.org/2000/svg" xmlns:xlink="http://www.w3.org/1999/xlink" x="0px"
	 y="0px" viewBox="0 0 5000 5000" enable-background="new 0 0 5000 5000" xml:space="preserve">
<g>
	<path d="M364,2885.2c35.2-7.1,63.3,0,84.4,14c21.1,21.1,42.1,49.2,49.2,91.3c7.1,35.2,7.1,70.3,0,105.4l-70.3,14
		c7.1-28.1,7.1-49.2,7.1-70.3s0-35.2-7.1-49.2c-7.1-14-7.1-28.1-21.1-35.2c-7.1-7.1-21.1-7.1-28.1-7.1c-7,0-14,7.1-14,7.1
		s-7.1,14-14,21.1c0,7.1-7.1,28.1-14,49.2c-7.1,21.1-14,42.1-21.1,56.2c-7.1,14-14,21.1-28.1,35.2c-14,7.1-28.1,14-42.1,21.1
		c-35.2,7.1-56.2,0-84.4-14c-21.1-14-42.1-42.1-49.2-84.4c-7.1-21.1-7.1-35.2-7.1-56.2c0-21.1,0-35.2,7.1-56.2l63.3,14
		c0,21.1-7.1,35.2-7.1,49.2c0,14,0,28.1,7.1,35.2c0,14,7.1,28.1,21.1,28.1c7.1,7.1,21.1,7.1,28.1,7.1c7,0,14-7.1,14-7.1
		s7.1-7.1,14-21.1c0-7.1,7.1-28.1,14-56.2c7.1-35.2,21.1-63.3,35.2-77.3C314.9,2885.2,343,2892.3,364,2885.2z"/>
	<path d="M181.3,2463.5c42.1,0,70.3,7.1,91.3,35.2c21.1,21.1,35.2,56.2,35.2,105.4v35.2l133.6-7.1v77.3l-365.5,14l-7.1-119.4
		c0-42.1,7.1-77.3,28.1-105.4C118.1,2470.5,139.2,2470.5,181.3,2463.5z M244.6,2639.3v-28.1c0-21.1-7.1-42.1-14-56.2
		c-7.1-14-21.1-14-42.1-14s-28.1,7.1-42.1,14c-7.1,7.1-14,28.1-14,49.2v35.2h112.3V2639.3z"/>
	<path d="M476.5,2090.9l-28.1,210.9l-365.5-56.2l28.1-210.9l63.3,7.1l-21.1,133.6l77.3,14l21.1-126.5l63.3,7.1l-21.1,126.5l91.3,14
		l21.1-133.6L476.5,2090.9z"/>
	<path d="M279.8,1676.2c-7.1,28.1-7.1,56.2,7.1,77.3c14.2,21.1,42.1,42.1,77.3,56.2c77.3,28.1,126.5,14,147.6-49.2
		c7.1-21.1,14-56.2,14-98.4l63.3,21.1c0,35.2,0,63.3-14,98.4c-21.1,56.2-49.2,91.3-91.3,105.4c-42.1,14-91.3,14-147.6-7.1
		c-35.2-14-63.3-28.1-91.3-56.2c-28.1-28.1-35.2-49.2-42.1-77.3c-7.1-28.1,0-63.3,7.1-91.3c14-35.2,35.2-63.3,63.3-91.3l49.2,42.1
		c-14,14-21.1,21.1-28.1,35.2C286.7,1655.2,279.8,1669.3,279.8,1676.2z"/>
	<path d="M673.4,1542.7L350,1367l35.2-70.3l323.4,175.7L673.4,1542.7z"/>
	<path d="M947.5,1142.1l-84.4-35.2l-84.4,105.4l49.2,77.3l-49.2,63.3l-210.9-330.3l56.2-77.3l372.5,126.5L947.5,1142.1z
		 M799.9,1085.9c-77.3-28.1-119.4-49.2-133.6-49.2c-7.1-7.1-21.1-7.1-21.1-7.1c14,21.1,42.1,63.3,98.4,133.6L799.9,1085.9z"/>
	<path d="M1102.1,987.5l-239-281.1l56.2-49.2L1116.2,889l112.5-98.4l42.1,49.2L1102.1,987.5z"/>
	<path d="M1833.2,347.8c21.1,56.2,21.1,105.4,0,147.6c-21.1,42.3-63.3,77.3-119.4,98.4l-98.4,35.2l-133.6-344.4l105.4-42.1
		c56.2-21.1,105.4-21.1,147.6-7.1C1783.9,256.4,1812,291.6,1833.2,347.8z M1755.7,376c-28.1-70.3-77.3-98.4-140.6-70.3l-42.1,14
		l84.4,224.9l28.1-14C1769.9,502.5,1790.9,453.3,1755.7,376z"/>
	<path d="M2268.9,446.2L2058,481.4l-56.2-365.5l210.9-35.2l14,63.3l-133.6,21.1l14,77.3l119.4-21.1l14,63.3l-119.4,21.1l14,91.3
		l133.6-21.1L2268.9,446.2L2268.9,446.2z"/>
	<path d="M2655.5,333.7c0,35.2-14,56.2-35.2,77.3c-21.1,21.1-56.2,28.1-98.4,28.1c-42.1,0-77.3-7.1-105.4-21.1v-70.3
		c28.1,14,42.1,21.1,63.3,21.1c14,7.1,35.2,7.1,49.2,7.1c14,0,28.1,0,42.1-7.1c7.1-7.1,14-14,14-28.1c0-7.1,0-14-7.1-21.1
		c-7.1-7.1-7.1-14-14-14c-7.1-7.1-21.1-14-49.2-28.1c-21.1-14-42.1-21.1-49.2-28.1c-14-7.1-21.1-21.1-28.1-35.2
		c-7.1-14-7.1-28.1-7.1-42.1c0-35.2,14-56.2,35.2-77.3c21.1-21.1,56.2-28.1,91.3-28.1c21.1,0,35.2,0,56.2,7.1
		c21.1,7.1,35.2,14,56.2,21.1l-28.1,63.3c-21.1-7.1-35.2-14-49.2-21.1c-14,0-28.1-7.1-35.2-7.1c-14,0-28.1,0-35.2,7.1
		c-7.1,7.1-14,14-14,28.1c0,7.1,0,14,7.1,21.1c0,7.1,7.1,7.1,14,14c7.1,7.1,21.1,14,49.2,28.1c35.2,14,56.2,35.2,70.3,49.2
		C2662.5,291.6,2655.5,312.7,2655.5,333.7z"/>
	<path d="M2810.1,460.3l56.2-365.5l77.3,14l-56.2,358.4L2810.1,460.3z"/>
	<path d="M3267,354.9l140.6,49.2l-63.3,182.7c-28.1,0-49.2,0-70.3-7.1c-21.1-7.1-42.1-7.1-63.3-14c-49.2-21.1-84.4-49.2-105.4-91.3
		c-14-42.1-14-91.3,7.1-147.6c21.1-56.2,49.2-91.3,91.3-112.5c42.1-21.1,91.3-21.1,147.6,0c35.2,14,70.3,35.2,98.4,56.2l-42.1,49.2
		c-21.1-21.1-42.1-35.2-70.3-49.2c-35.2-14-63.3-7.1-84.4,7.1c-28.1,14-49.2,42.1-56.2,77.3c-14,35.2-14,70.3-7.1,91.3
		c7.1,28.1,28.1,42.1,56.2,56.2c14,7.1,28.1,7.1,49.2,14l28.1-70.3l-63.3-21.1L3267,354.9z"/>
	<path d="M3766,846.9l-84.4-56.2l14-323.4l0,0c-21.1,42.1-42.1,70.3-56.2,91.3l-91.3,147.6l-56.2-35.2l196.9-309.2l84.4,56.2
		l-14,316.3l0,0c21.1-42.1,42.1-70.3,49.2-84.4l91.3-147.6l56.2,35.2L3766,846.9z"/>
	<path d="M4258,1381.1l-56.2-70.3l63.3-168.6l-42.1-14l-105.4,77.3l-49.2-63.3l295.2-224.9l49.2,63.3l-133.6,105.4h56.2H4497
		l56.2,70.3h-210.9L4258,1381.1z"/>
	<path d="M4785.2,1613l-217.9,98.4c-28.1,14-49.2,14-70.3,14c-21.1,0-42.1-14-63.3-28.1c-21.1-14-35.2-35.2-49.2-70.3
		c-21.1-42.1-28.1-84.4-14-112.5c14-35.2,35.2-63.3,70.3-77.3l217.9-98.4l35.2,70.3l-203.8,98.4c-28.1,14-42.1,28.1-49.2,42.1
		c-7.1,14-7.1,35.2,7.1,56.2c14,21.1,28.1,35.2,42.1,42.1c14,7.1,35.2,0,63.3-14l203.8-98.4L4785.2,1613z"/>
	<path d="M4750,2189.4c-56.2,14-105.4,7.1-147.6-21.1c-42.1-28.1-63.3-70.3-77.3-133.6l-21.1-105.4l358.4-77.3l21.1,112.5
		c14,56.2,7.1,105.4-14,147.6C4848.3,2154.3,4806.3,2182.3,4750,2189.4z M4736,2112.1c77.3-14,105.4-56.2,91.3-126.5l-7.1-42.1
		l-231.9,49.2l7.1,35.2C4609.5,2105,4658.7,2133.2,4736,2112.1z"/>
	<path d="M4764.1,2730.6c-63.3,0-105.4-14-140.6-49.2c-35.2-35.2-49.2-77.3-49.2-133.6c0-56.3,21.1-98.4,49.2-126.5
		c35.2-28.1,77.3-42.1,140.6-42.1s105.4,14,140.6,49.2c35.2,28.1,49.2,77.3,49.2,133.6c0,56.3-21.1,98.4-49.2,126.5
		C4869.6,2716.6,4820.4,2730.6,4764.1,2730.6z M4764.1,2463.5c-42.1,0-70.3,7.1-91.3,21.1c-21,14-35.2,35.2-35.2,70.3
		c0,63.3,42.1,91.3,119.4,98.4c84.4,0,126.5-28.1,126.5-91.3c0-28.1-7.1-56.2-28.1-70.3C4841.4,2470.5,4806.3,2463.5,4764.1,2463.5z
		"/>
	<path d="M4602.4,3124.2c-35.2-7.1-56.2-28.1-70.3-56.2c-14-28.1-14-63.3-7.1-105.4c7.1-35.2,21.1-70.3,42.1-98.4l70.3,14
		c-14,21.1-28.1,42.1-35.2,56.2c-7.1,14-14,28.1-14,42.1c-7.1,14-7.1,28.1,0,42.1c7.1,7.1,14,14,28.1,21.1c7.1,0,14,0,21.1,0
		c7.1,0,14-7.1,21.1-14c7.1-7.1,21.1-21.1,35.2-42.1c14-21.1,28.1-35.2,42.1-42.1s28.1-14,42.1-21.1c14-7.1,28.1,0,49.2,0
		c35.2,7.1,56.2,21.1,70.3,49.2c14,28.1,14,56.2,7.1,98.4c-7.1,21.1-14,35.2-21.1,49.2c-7.1,14-21.1,35.2-28.1,49.2l-70.3-28.1
		c14-14,21.1-35.2,28.1-42.1c7.1-14,7.1-21.1,14-35.2c0-14,0-28.1,0-35.2c-7.1-7.1-14-14-21.1-21.1c-7.1,0-14,0-21.1,0
		c-7.1,0-14,7.1-21.1,14c-7.1,7.1-21.1,21.1-35.2,42.1c-21.1,28.1-42.1,49.2-63.3,56.2C4644.6,3124.2,4623.5,3124.2,4602.4,3124.2z"
		/>
	<g>
		<path d="M1010.2,4407l42.1-91.3l-105.4-98.4l-84.4,49.2l-70.3-63.3l372.5-203.8l77.3,70.3l-161.7,393.6L1010.2,4407z
			 M1080.5,4252.4c35.2-84.4,56.2-126.5,63.3-140.6c7.1-14,7.1-21.1,14-28.1c-21.1,14-70.3,42.1-154.6,91.3L1080.5,4252.4z"/>
		<path d="M1614.7,4772.5l-84.4-42.1l42.1-210.9c0-7.1,7.1-21.1,14-49.2c7.1-21.1,14-35.2,14-49.2c-7.1,7.1-14,21.1-28.1,42.1
			c-14,14-21.1,28.1-28.1,35.2L1403.8,4660l-84.4-42.1l84.4-400.7l77.3,35.2l-56.2,224.9c-7.1,42.1-21.1,77.3-28.1,105.4
			c7.1-7.1,14-21.1,28.1-42.1c14-21.1,21.1-28.1,35.2-42.1l154.6-175.7l70.3,35.2l-49.2,224.9c0,7.1-7.1,28.1-14,42.1
			c-7.1,21.1-14,35.2-14,49.2c7.1-14,21.1-28.1,28.1-42.1c14-14,21.1-28.1,35.2-42.1l140.6-168.6l77.3,35.2L1614.7,4772.5z"/>
		<path d="M2169.9,4920.1l-7.1-98.4l-140.6-28.1l-56.2,91.3l-91.3-14l210.9-365.5l98.4,21.1l63.3,421.7L2169.9,4920.1z
			 M2148.8,4751.5c-7.1-91.3-14-140.6-14-154.6c0-14,0-21.1,0-28.1c-7.1,21.1-35.2,77.3-84.4,161.7L2148.8,4751.5z"/>
		<path d="M2556.5,4793.6l7.1,154.6h-84.4l-14-400.7l112.5-7.1c56.2,0,91.3,7.1,119.4,28.1c28.1,21.1,42.1,49.2,42.1,91.3
			c0,21.1-7.1,42.1-14,63.3c-14,21.1-28.1,35.2-56.2,42.1c63.3,84.4,105.4,140.6,126.5,168.6l-91.3,7.1l-105.4-147.6h-42.3V4793.6z
			 M2556.5,4723.3h28.1c28.1,0,49.2-7.1,56.2-14c14-7.1,21.1-21.1,14-42.1c0-21.1-7.1-35.2-21.1-42.1c-14-7-35.2-7.1-56.2-7.1h-28.1
			L2556.5,4723.3z"/>
		<path d="M3280.5,4617.9c21.1,63.3,14,119.4-14,161.7c-28.1,42.1-70.3,77.3-140.6,91.3l-112.5,28.1l-105.4-386.6l119.4-35.2
			c63.3-21.1,112.5-14,161.7,7.1C3231.3,4512.5,3259.4,4554.6,3280.5,4617.9z M3196.1,4639c-21.1-84.4-70.3-112.5-140.6-91.3
			l-42.1,14l70.3,253l35.2-7.1C3189.1,4779.6,3217.3,4723.3,3196.1,4639z"/>
		<path d="M3765.5,4596.8l-203.8,112.5l-189.8-351.5l203.8-112.5l35.2,63.3l-126.5,70.3l42.1,77.3l119.4-63.3l35.2,63.3l-119.4,63.3
			l49.2,91.3l126.5-70.3L3765.5,4596.8z"/>
		<path d="M4081.8,4090.7c42.1,49.2,63.3,98.4,56.2,147.6s-35.2,98.4-84.4,147.6l-84.4,77.3L3709,4161l91.3-84.4
			c49.2-42.1,98.4-63.3,147.6-63.3C3997.4,4020.5,4046.6,4041.5,4081.8,4090.7z M4018.5,4147c-56.2-63.3-112.5-70.3-168.6-21.1
			l-35.2,28.1l168.6,196.9l28.1-21.1C4074.7,4273.5,4074.7,4217.2,4018.5,4147z"/>
	</g>
	<g>
		<path d="M1637.8,2439c-21.1,0-35.2,7.1-49.2,28.1c-14,14-21.1,42.1-21.1,70.3c0,63.3,21.1,91.3,70.3,91.3c14,0,28.1,0,42.1-7.1
			c14-7.1,28.1-7.1,42.1-14v77.3c-28.1,14-56.2,21.1-91.3,21.1c-49.2,0-84.4-14-112.5-42.1c-28.1-28.1-42.1-70.3-42.1-126.5
			c0-35.2,7.1-63.3,21.1-91.3c14-28.1,28.1-42.1,56.2-56.2c21.1-14,49.2-21.1,84.4-21.1s70.3,7.1,98.4,21.1l-28.1,70.3
			c-14-7.1-21.1-7.1-35.2-14C1665.9,2439,1651.9,2439,1637.8,2439z"/>
		<path d="M2157.9,2593.6c0,21.1-7.1,35.2-14,56.2c-7.1,14-28.1,28.1-42.1,35.2c-21.1,7.1-42.1,14-70.3,14c-21.1,0-42.1,0-56.2-7.1
			c-14-7.1-28.1-7.1-49.2-14v-77.3c14,7.1,35.2,14,56.2,21.1c21.1,7.1,35.2,7.1,49.2,7.1s21.1,0,28.1-7.1c7.1-7.1,7.1-7.1,7.1-21.1
			c0-7.1,0-7.1-7.1-14c0,0-7.1-7.1-14-7.1c-7.1,0-21.1-7.1-42.1-21.1c-21.1-7.1-35.2-21.1-49.2-28.1c-14-7.1-21.1-21.1-21.1-28.1
			c-7.1-14-7.1-28.1-7.1-42.1c0-28.1,14-56.2,35.2-70.3c21.1-14,49.2-28.1,91.3-28.1c35.2,0,70.3,7.1,105.4,21.1l-28.1,70.3
			c-28.1-14-56.2-21.1-77.3-21.1c-14,0-21.1,0-28.1,7.1c-7.1,7.1-7.1,14-7.1,14c0,7.1,0,14,7.1,14c7.1,7.1,28.1,14,56.2,28.1
			c28.1,14,49.2,28.1,56.2,42.1C2150.8,2558.6,2157.9,2572.6,2157.9,2593.6z"/>
		<path d="M2572.7,2593.6c0,21.1-7.1,35.2-14,56.2c-7.1,14-28.1,28.1-42.1,35.2c-21.1,7.1-42.1,14-70.3,14c-21.1,0-42.1,0-56.2-7.1
			c-14-7.1-28.1-7.1-49.2-14v-77.3c14,7.1,35.2,14,56.2,21.1c21.1,7.1,35.2,7.1,49.2,7.1c14,0,21.1,0,28.1-7.1
			c7.1-7.1,7.1-7.1,7.1-21.1c0-7.1,0-7.1-7.1-14c0,0-7.1-7.1-14-7.1c-7.1,0-21.1-7.1-42.1-21.1c-21.1-7.1-35.2-21.1-49.2-28.1
			c-14-7.1-21.1-21.1-21.1-28.1c-7.1-14-7.1-28.1-7.1-42.1c0-28.1,14-56.2,35.2-70.3c21.1-14,49.2-28.1,91.3-28.1
			c35.2,0,70.3,7.1,105.4,21.1l-28.1,70.3c-28.1-14-56.2-21.1-77.3-21.1c-14,0-21.1,0-28.1,7.1c-7.1,7.1-7.1,7.1-7.1,14
			c0,7.1,0,14,7.1,14c7.1,7.1,28.1,14,56.2,28.1c28.1,14,49.2,28.1,56.2,42.1C2572.7,2558.6,2572.7,2572.6,2572.7,2593.6z"/>
		<path d="M3057.6,2523.4c0,56.2-14,98.4-42.1,126.5c-28.1,28.1-70.3,42.1-126.5,42.1h-105.4v-330.3H2896c56.2,0,91.3,14,119.4,42.1
			C3043.6,2432,3057.6,2474.2,3057.6,2523.4z M2966.3,2530.3c0-28.1-7.1-49.2-21.1-70.3c-14-14-28.1-21.1-56.2-21.1h-28.1v182.7
			h21.1c28.1,0,49.2-7.1,56.2-21.1C2959.2,2586.6,2966.3,2558.6,2966.3,2530.3z"/>
		<path d="M3472.3,2699.1l-14-63.3h-105.4l-14,63.3h-98.4l105.4-330.3h119.4l105.4,330.3H3472.3z M3437.2,2565.5l-14-56.2
			c0-14-7.1-28.1-14-49.2c-7.1-21.1-7.1-35.2-7.1-42.1c0,7.1-7.1,21.1-7.1,35.2c-7.1,14-14,49.2-28.1,105.4h70.3L3437.2,2565.5
			L3437.2,2565.5z"/>
		<polygon points="3971.3,2179 3971.3,2129.8 2945.1,2129.8 2607.7,1792.4 2277.4,2129.8 2087.6,2129.8 2790.5,1426.9 
			2052.4,1426.9 1342.5,2129.8 1075.4,2129.8 1075.4,2179 		"/>
		<polygon points="1075.4,2881.8 1075.4,2931 2094.7,2931 2425,3261.4 2762.4,2931 2945.1,2931 2242.2,3634 2980.3,3634 
			3352.8,3268.5 3683.1,2931 3971.3,2931 3971.3,2881.8 		"/>
	</g>
</g>
</svg>
